<svg width="154" height="41" viewBox="0 0 154 41" fill="none" xmlns="http://www.w3.org/2000/svg">
<g clip-path="url(#clip0_17_1204)">
<g clip-path="url(#clip1_17_1204)">
<g clip-path="url(#clip2_17_1204)">
<path d="M30.5464 16.9271L31.0481 16.7155L31.2081 16.0383L31.3751 15.3639L32.7734 14.7684C33.7216 14.3682 34.1852 14.1902 34.1998 14.2244C34.2191 14.2685 34.6891 18.6691 34.6962 18.8755C34.6974 18.9328 34.8228 18.8976 35.2945 18.6987L35.8905 18.4469L36.3248 15.7785L36.7614 13.1146L38.3549 12.4134C40.0772 11.6579 40.1048 11.64 40.2349 11.2602C40.3251 11.0074 40.3193 10.8299 40.2114 10.5788C40.0778 10.2692 39.7801 10.0407 39.4461 10.0019C39.1917 9.96996 39.1917 9.96997 37.6024 10.6402L36.0183 11.3088L33.7316 9.74788L31.4501 8.18457L30.864 8.43158C30.3278 8.65773 30.2821 8.68846 30.3389 8.75167C30.3753 8.79458 31.0703 9.60463 31.8849 10.5556C32.6995 11.5066 33.3758 12.3131 33.3887 12.3428C33.4098 12.3921 33.1033 12.5388 32.0309 12.9911L30.6454 13.5756L29.9955 13.2108L29.3503 12.8444L28.8639 13.0496C28.422 13.2363 28.3816 13.2648 28.4378 13.328C28.4742 13.3709 28.7906 13.7658 29.1487 14.2013L29.7939 15.0032L29.917 15.9964C29.9826 16.5438 30.0377 17.0257 30.0424 17.0639C30.0436 17.1219 30.159 17.0906 30.5464 16.9271Z" fill="#63AB45"/>
<path d="M29.0293 15.9129L27.9803 16.4754C24.13 18.5745 21.2818 20.5518 20.0101 22.0362C19.8695 22.2044 19.7464 22.361 19.6409 22.5117C19.4358 22.2276 19.1721 22.013 18.8029 22.1C18.5216 22.1638 18.3223 22.3377 18.1582 22.5581C19.1838 20.9693 21.8737 18.847 25.853 16.5043C26.5914 16.0694 28.4433 15.0257 28.5956 14.9619C28.6308 14.9619 28.7304 15.1417 28.8359 15.4258L29.0293 15.9129Z" fill="#63AB45"/>
<path d="M18.8026 0.621976C17.8357 0.749546 16.9507 0.911907 16.0658 1.341C15.3977 1.66572 14.7414 2.10642 14.2374 2.65729C13.8271 3.10378 13.4462 3.57927 13.1708 4.12434C12.7312 4.99413 12.5613 5.89871 12.5613 6.86128C12.5613 7.16861 12.5378 7.47593 12.5964 7.77746C12.7547 8.64146 13.1122 9.46486 13.4638 10.2593C13.9854 11.4422 14.6007 12.5787 15.2219 13.7094C16.0072 15.1359 16.857 16.5276 17.7067 17.9192C17.9763 18.3599 18.2928 19.2007 18.9433 19.1369C19.5528 19.0732 19.7403 18.5223 20.045 18.0816C20.7835 17.0088 21.4691 15.8781 22.1431 14.759C22.9577 13.4021 23.7664 12.0394 24.4462 10.613C24.8447 9.77798 25.2726 8.8908 25.4249 7.96882C25.466 7.71368 25.4484 7.45274 25.4601 7.1918C25.507 6.14805 25.2784 5.0985 24.7803 4.17072C24.4814 3.61986 24.1063 3.12697 23.6668 2.67468C23.1276 2.12381 22.4771 1.67152 21.7797 1.33521C21.0882 1.00468 20.3674 0.77274 19.6055 0.662566C19.3418 0.639372 19.0664 0.587184 18.8026 0.621976Z" fill="#63AB45"/>
<path d="M6.32706 7.08175C5.82307 7.14553 5.33079 7.15133 4.83851 7.2905C3.36754 7.7022 2.08411 8.56619 1.14644 9.76071C0.595555 10.4681 0.284952 11.3437 0.13258 12.2135C-0.26593 14.4634 0.361137 16.8814 2.17201 18.4006C2.71703 18.8587 3.39684 19.2994 4.07665 19.5314C5.18428 19.9083 6.39153 19.9721 7.54603 20.0532C9.28658 20.1692 11.0447 20.1808 12.7911 20.1228C13.6819 20.0938 14.5727 20.1054 15.4635 20.0532C15.7624 20.0358 16.0788 20.088 16.3777 20.03C16.8876 19.9257 17.1982 19.4212 17.0224 18.9283C16.9052 18.5978 16.6707 18.2847 16.5066 17.9715C16.1023 17.2177 15.692 16.4639 15.276 15.7159C14.2914 13.9473 13.2717 12.1555 12.0644 10.5261C11.3963 9.62734 10.7341 8.65897 9.7437 8.07911C8.89394 7.58043 8.03245 7.21512 7.04204 7.12234C6.80176 7.09334 6.55562 7.04696 6.32706 7.08175Z" fill="#63AB45"/>
<path d="M10.13 21.0852C9.84866 21.12 9.54978 21.091 9.26848 21.0968C8.85239 21.1026 8.4363 21.1258 8.02021 21.1432C7.28179 21.178 6.54338 21.2418 5.81082 21.3462C5.21892 21.4273 4.61529 21.5027 4.05269 21.7115C3.40218 21.9492 2.78684 22.3493 2.24768 22.7726C1.83745 23.0916 1.47996 23.4859 1.17522 23.9092C0.132058 25.3762 -0.213708 27.2608 0.126197 29.0119C0.255127 29.6788 0.448521 30.3746 0.788427 30.9719C1.04043 31.4068 1.40377 31.8011 1.76126 32.1548C3.15018 33.5407 5.16031 34.3525 7.14114 34.1147C8.2136 33.9871 9.33294 33.5349 10.1768 32.868C11.1204 32.1258 11.8295 31.053 12.4917 30.0673C13.5232 28.5307 14.4784 26.9418 15.3692 25.324C15.8204 24.5006 16.2658 23.6714 16.723 22.848C16.9515 22.4305 17.2211 22.0246 16.9222 21.5665C16.5823 21.0388 15.715 21.1722 15.1641 21.1722C14.4022 21.1722 13.6404 21.1026 12.8785 21.0968C12.5445 21.091 12.2046 21.1084 11.8705 21.091C11.4837 21.0736 11.0911 21.0736 10.7043 21.0794C10.5168 21.0852 10.3234 21.062 10.13 21.0852Z" fill="#63AB45"/>
<path d="M37.515 30.1137C36.3136 33.3899 32.0062 35.1585 28.8592 33.5233C28.0797 33.1174 27.4175 32.6535 26.8549 31.9693C26.7201 31.8069 26.4095 31.546 26.3802 31.3314C26.2571 31.2734 26.1809 31.1227 26.1048 31.0183C25.9114 30.7574 25.718 30.4964 25.5421 30.2239C24.9151 29.2729 24.3115 28.3161 23.7254 27.3478C23.4793 26.9419 23.239 26.5302 23.0046 26.1243C22.8522 25.8691 22.7057 25.614 22.565 25.3647C22.1783 24.6804 21.8032 23.9904 21.4516 23.2945C21.2113 22.8191 20.7014 22.2508 20.9417 21.6941C21.2171 21.0447 21.9204 21.236 22.4771 21.1839C23.2156 21.1143 23.9657 21.1433 24.7041 21.1259C25.5421 21.1027 26.3861 21.0679 27.23 21.0853C28.7302 21.1201 30.2305 21.1201 31.7249 21.294C32.4516 21.381 33.19 21.468 33.8816 21.7057C34.2742 21.8449 34.6375 22.0594 34.9892 22.2798C35.5635 22.6335 36.0851 23.0568 36.5129 23.5845C36.9641 24.1295 37.304 24.75 37.5385 25.411L37.6967 25.9213L37.7143 25.9735L37.7201 25.9967C38.0659 27.3478 37.9956 28.809 37.515 30.1137Z" fill="#63AB45"/>
<path d="M25.4547 34.0221C25.4782 34.9498 25.3258 35.8197 24.9625 36.6837C24.7456 37.194 24.4233 37.6579 24.0775 38.0928C23.638 38.6379 23.093 39.1075 22.4952 39.4845C21.7509 39.9541 20.9422 40.2847 20.0807 40.4818C17.5431 41.0617 14.6598 39.6178 13.3588 37.4432C12.6907 36.3242 12.4446 34.9789 12.5676 33.6916C12.6555 32.7523 13.0892 31.8245 13.4643 30.9721C14.1617 29.4065 14.9763 27.8872 15.8495 26.4202C16.4765 25.3648 17.0978 24.3095 17.7307 23.2599C17.8596 23.0454 17.9768 22.8134 18.1292 22.6047C18.1351 22.5873 18.1468 22.5757 18.1585 22.5583C18.3226 22.338 18.5218 22.164 18.8031 22.1002C19.1724 22.0132 19.4361 22.2278 19.6412 22.5119C19.8053 22.7265 19.9342 22.9816 20.0573 23.1672C20.5085 23.834 20.9363 24.5182 21.3583 25.2083C21.5341 25.4866 21.7041 25.7649 21.874 26.0491C22.1026 26.4202 22.3253 26.7913 22.5538 27.1566C23.2864 28.3453 23.9662 29.592 24.5581 30.8561C24.9156 31.6215 25.2848 32.4275 25.4196 33.2625C25.4606 33.5177 25.4489 33.7669 25.4547 34.0221Z" fill="#63AB45"/>
<path d="M57.568 12.3624L57.208 14.5224H53.176V28.6104H50.344V14.5224H46.24V12.3624H57.568ZM62.4745 19.1544C62.1865 19.1544 61.8985 19.2264 61.6105 19.3704C61.3225 19.5144 61.0665 19.7144 60.8425 19.9704C60.6185 20.2104 60.4345 20.5064 60.2905 20.8584C60.1465 21.2104 60.0745 21.6024 60.0745 22.0344V28.6104H57.3385V22.5624C57.3385 21.6024 57.2745 20.8024 57.1465 20.1624C57.0185 19.5064 56.8825 18.9784 56.7385 18.5784C56.5625 18.1144 56.3705 17.7384 56.1625 17.4504L58.3225 16.5864C58.4665 16.7624 58.6185 16.9784 58.7785 17.2344C58.9065 17.4584 59.0345 17.7224 59.1625 18.0264C59.2905 18.3304 59.3945 18.6904 59.4745 19.1064C59.7945 18.1784 60.2585 17.5144 60.8665 17.1144C61.4745 16.6984 62.1625 16.4904 62.9305 16.4904C63.2985 16.4904 63.6425 16.5384 63.9625 16.6344C64.2825 16.7144 64.4345 16.7544 64.4185 16.7544L63.6505 19.4184C63.6665 19.4184 63.5705 19.3784 63.3625 19.2984C63.1705 19.2024 62.8745 19.1544 62.4745 19.1544ZM68.5019 28.7064C67.6539 28.7064 67.0059 28.4584 66.5579 27.9624C66.1099 27.4504 65.8859 26.7944 65.8859 25.9944V16.6584H68.6219V25.7544C68.6219 26.1224 68.6779 26.3704 68.7899 26.4984C68.9019 26.6264 69.0699 26.6904 69.2939 26.6904C69.3579 26.6904 69.4219 26.6904 69.4859 26.6904C69.5659 26.6904 69.6379 26.6824 69.7019 26.6664C69.7659 26.6664 69.8379 26.6584 69.9179 26.6424L70.2059 28.3704C70.0939 28.4344 69.9499 28.4904 69.7739 28.5384C69.6299 28.5864 69.4459 28.6264 69.2219 28.6584C69.0139 28.6904 68.7739 28.7064 68.5019 28.7064ZM67.3019 11.3304C67.8139 11.3304 68.2059 11.4824 68.4779 11.7864C68.7499 12.0904 68.8859 12.4824 68.8859 12.9624C68.8859 13.4424 68.7419 13.8424 68.4539 14.1624C68.1819 14.4824 67.7739 14.6424 67.2299 14.6424C66.7179 14.6424 66.3179 14.4904 66.0299 14.1864C65.7579 13.8664 65.6219 13.4824 65.6219 13.0344C65.6219 12.5384 65.7579 12.1304 66.0299 11.8104C66.3179 11.4904 66.7419 11.3304 67.3019 11.3304ZM72.3385 33.9144V22.5624C72.3385 21.6024 72.2745 20.8024 72.1465 20.1624C72.0185 19.5064 71.8825 18.9784 71.7385 18.5784C71.5625 18.1144 71.3705 17.7384 71.1625 17.4504L73.3225 16.5864C73.5145 16.7784 73.6905 17.0184 73.8505 17.3064C73.9785 17.5464 74.1065 17.8424 74.2345 18.1944C74.3625 18.5304 74.4585 18.9304 74.5225 19.3944C74.7945 18.4344 75.2265 17.7064 75.8185 17.2104C76.4105 16.7144 77.2345 16.4664 78.2905 16.4664C79.0425 16.4664 79.6905 16.6104 80.2345 16.8984C80.7945 17.1704 81.2505 17.5704 81.6025 18.0984C81.9705 18.6104 82.2425 19.2344 82.4185 19.9704C82.5945 20.7064 82.6825 21.5224 82.6825 22.4184C82.6825 23.3304 82.5465 24.1784 82.2745 24.9624C82.0025 25.7304 81.6105 26.3944 81.0985 26.9544C80.6025 27.5144 80.0025 27.9544 79.2985 28.2744C78.5945 28.5944 77.8105 28.7544 76.9465 28.7544C76.6425 28.7544 76.3305 28.7384 76.0105 28.7064C75.7065 28.6744 75.3945 28.6424 75.0745 28.6104V33.4344L72.3385 33.9144ZM77.8345 18.3864C77.4345 18.3864 77.0665 18.5224 76.7305 18.7944C76.3945 19.0664 76.0985 19.4264 75.8425 19.8744C75.6025 20.3224 75.4105 20.8264 75.2665 21.3864C75.1385 21.9464 75.0745 22.5224 75.0745 23.1144V26.5704C75.2345 26.6184 75.4745 26.6744 75.7945 26.7384C76.1145 26.8024 76.3945 26.8344 76.6345 26.8344C77.2425 26.8344 77.7465 26.7304 78.1465 26.5224C78.5465 26.3144 78.8665 26.0264 79.1065 25.6584C79.3465 25.2904 79.5145 24.8504 79.6105 24.3384C79.7065 23.8264 79.7545 23.2664 79.7545 22.6584C79.7545 22.0984 79.7385 21.5624 79.7065 21.0504C79.6745 20.5384 79.5865 20.0824 79.4425 19.6824C79.3145 19.2824 79.1225 18.9704 78.8665 18.7464C78.6105 18.5064 78.2665 18.3864 77.8345 18.3864ZM94.6394 12.3624H97.4954V28.6344H95.1194L89.6474 20.0904C89.3434 19.6264 89.0074 19.1064 88.6394 18.5304C88.2874 17.9384 87.9514 17.3944 87.6314 16.8984C87.6794 17.4104 87.7194 17.9464 87.7514 18.5064C87.7994 19.0664 87.8234 19.6024 87.8234 20.1144L87.8954 28.6104H85.0394V12.3144H87.2714L92.9114 20.7624C93.2314 21.2264 93.5514 21.7224 93.8714 22.2504C94.2074 22.7624 94.5354 23.2584 94.8554 23.7384C94.8234 23.2264 94.7914 22.7144 94.7594 22.2024C94.7274 21.6744 94.7114 21.2264 94.7114 20.8584L94.6394 12.3624ZM99.8556 22.9224C99.8556 21.8504 99.9996 20.9064 100.288 20.0904C100.592 19.2744 101 18.5944 101.512 18.0504C102.04 17.4904 102.656 17.0744 103.36 16.8024C104.064 16.5144 104.824 16.3704 105.64 16.3704C106.36 16.3704 106.968 16.4584 107.464 16.6344C107.976 16.8104 108.392 17.0504 108.712 17.3544C109.032 17.6584 109.264 18.0184 109.408 18.4344C109.568 18.8504 109.648 19.2984 109.648 19.7784C109.648 20.3544 109.488 20.9064 109.168 21.4344C108.848 21.9464 108.384 22.4024 107.776 22.8024C107.184 23.1864 106.464 23.4984 105.616 23.7384C104.768 23.9624 103.816 24.0824 102.76 24.0984C102.808 24.4664 102.88 24.8184 102.976 25.1544C103.088 25.4744 103.24 25.7624 103.432 26.0184C103.64 26.2584 103.904 26.4504 104.224 26.5944C104.544 26.7384 104.944 26.8104 105.424 26.8104C105.776 26.8104 106.152 26.7704 106.552 26.6904C106.952 26.6104 107.32 26.5144 107.656 26.4024C108.056 26.2744 108.448 26.1304 108.832 25.9704L109.552 27.6744C109.136 27.8824 108.688 28.0664 108.208 28.2264C107.792 28.3704 107.312 28.4984 106.768 28.6104C106.224 28.7224 105.648 28.7784 105.04 28.7784C104.112 28.7784 103.32 28.6424 102.664 28.3704C102.008 28.0824 101.472 27.6824 101.056 27.1704C100.64 26.6584 100.336 26.0424 100.144 25.3224C99.9516 24.6024 99.8556 23.8024 99.8556 22.9224ZM105.424 18.2424C104.896 18.2424 104.456 18.3704 104.104 18.6264C103.768 18.8664 103.496 19.1864 103.288 19.5864C103.08 19.9704 102.928 20.4104 102.832 20.9064C102.752 21.3864 102.704 21.8744 102.688 22.3704C103.456 22.3384 104.104 22.2424 104.632 22.0824C105.176 21.9064 105.616 21.6984 105.952 21.4584C106.288 21.2024 106.528 20.9304 106.672 20.6424C106.832 20.3544 106.912 20.0664 106.912 19.7784C106.912 19.3144 106.776 18.9464 106.504 18.6744C106.232 18.3864 105.872 18.2424 105.424 18.2424ZM115.447 16.3704C115.911 16.3704 116.367 16.4184 116.815 16.5144C117.263 16.6104 117.663 16.7224 118.015 16.8504C118.431 16.9944 118.815 17.1464 119.167 17.3064L118.351 19.1784C118.031 19.0344 117.711 18.9064 117.391 18.7944C117.119 18.6984 116.815 18.6104 116.479 18.5304C116.159 18.4344 115.839 18.3864 115.519 18.3864C115.151 18.3864 114.831 18.4744 114.559 18.6504C114.303 18.8264 114.175 19.0904 114.175 19.4424C114.175 20.3544 114.839 21.0664 116.167 21.5784C116.663 21.7704 117.111 21.9784 117.511 22.2024C117.911 22.4104 118.247 22.6584 118.519 22.9464C118.807 23.2344 119.023 23.5704 119.167 23.9544C119.311 24.3224 119.383 24.7624 119.383 25.2744C119.383 25.7224 119.287 26.1624 119.095 26.5944C118.919 27.0264 118.647 27.4104 118.279 27.7464C117.927 28.0824 117.487 28.3544 116.959 28.5624C116.447 28.7544 115.863 28.8504 115.207 28.8504C114.679 28.8504 114.159 28.7864 113.647 28.6584C113.135 28.5464 112.671 28.4184 112.255 28.2744C111.855 28.1304 111.535 27.9944 111.295 27.8664L110.935 27.6984L111.823 25.6824L112.135 25.8504C112.343 25.9784 112.607 26.1144 112.927 26.2584C113.247 26.4024 113.591 26.5384 113.959 26.6664C114.327 26.7784 114.663 26.8344 114.967 26.8344C115.527 26.8344 115.943 26.7224 116.215 26.4984C116.487 26.2744 116.623 25.9784 116.623 25.6104C116.623 25.1944 116.471 24.8184 116.167 24.4824C115.879 24.1304 115.439 23.8424 114.847 23.6184C113.615 23.1544 112.727 22.6264 112.183 22.0344C111.655 21.4424 111.391 20.6744 111.391 19.7304C111.391 19.2824 111.495 18.8584 111.703 18.4584C111.911 18.0424 112.191 17.6824 112.543 17.3784C112.911 17.0584 113.343 16.8104 113.839 16.6344C114.335 16.4584 114.871 16.3704 115.447 16.3704ZM120.49 16.6584H122.65L123.13 13.8504L125.386 13.3464V16.6584H128.338L128.002 18.6024H125.386V25.7064C125.386 26.1224 125.498 26.3944 125.722 26.5224C125.946 26.6344 126.194 26.6904 126.466 26.6904C126.69 26.6904 126.914 26.6744 127.138 26.6424C127.362 26.6104 127.562 26.5704 127.738 26.5224C127.946 26.4744 128.146 26.4184 128.338 26.3544L128.794 28.1544L128.578 28.2264C128.434 28.2904 128.218 28.3624 127.93 28.4424C127.658 28.5064 127.33 28.5624 126.946 28.6104C126.578 28.6744 126.17 28.7064 125.722 28.7064C125.274 28.7064 124.858 28.6584 124.474 28.5624C124.106 28.4664 123.786 28.3144 123.514 28.1064C123.242 27.8824 123.026 27.6024 122.866 27.2664C122.722 26.9304 122.65 26.5144 122.65 26.0184V18.6024H120.49V16.6584Z" fill="white"/>
</g>
</g>
</g>
<defs>
<clipPath id="clip0_17_1204">
<rect width="154" height="40" fill="white" transform="translate(0 0.610352)"/>
</clipPath>
<clipPath id="clip1_17_1204">
<rect width="154" height="40" fill="white" transform="translate(0 0.610352)"/>
</clipPath>
<clipPath id="clip2_17_1204">
<rect width="154" height="40" fill="white" transform="translate(0 0.610352)"/>
</clipPath>
</defs>
</svg>
