<svg width="154" height="40" viewBox="0 0 154 40" fill="none" xmlns="http://www.w3.org/2000/svg">
<g clip-path="url(#clip0_17_105)">
<g clip-path="url(#clip1_17_105)">
<g clip-path="url(#clip2_17_105)">
<path d="M30.5464 16.3168L31.0481 16.1052L31.2081 15.4279L31.3751 14.7535L32.7734 14.158C33.7216 13.7579 34.1852 13.5798 34.1998 13.614C34.2191 13.6581 34.6891 18.0587 34.6962 18.2651C34.6974 18.3225 34.8228 18.2872 35.2945 18.0883L35.8905 17.8366L36.3248 15.1681L36.7614 12.5042L38.3549 11.8031C40.0772 11.0476 40.1048 11.0296 40.2349 10.6498C40.3251 10.397 40.3193 10.2196 40.2114 9.96847C40.0778 9.65883 39.7801 9.43035 39.4461 9.3915C39.1917 9.35961 39.1917 9.35962 37.6024 10.0299L36.0183 10.6985L33.7316 9.13753L31.4501 7.57422L30.864 7.82123C30.3278 8.04738 30.2821 8.07811 30.3389 8.14132C30.3753 8.18423 31.0703 8.99428 31.8849 9.94526C32.6995 10.8962 33.3758 11.7028 33.3887 11.7324C33.4098 11.7817 33.1033 11.9284 32.0309 12.3807L30.6454 12.9652L29.9955 12.6004L29.3503 12.234L28.8639 12.4393C28.422 12.626 28.3816 12.6544 28.4378 12.7176C28.4742 12.7605 28.7906 13.1554 29.1487 13.5909L29.7939 14.3928L29.917 15.3861C29.9826 15.9335 30.0377 16.4154 30.0424 16.4536C30.0436 16.5116 30.159 16.4803 30.5464 16.3168Z" fill="#63AB45"/>
<path d="M29.0293 15.3026L27.9803 15.8651C24.13 17.9642 21.2818 19.9415 20.0101 21.4259C19.8695 21.5941 19.7464 21.7507 19.6409 21.9014C19.4358 21.6173 19.1721 21.4027 18.8029 21.4897C18.5216 21.5535 18.3223 21.7274 18.1582 21.9478C19.1838 20.359 21.8737 18.2367 25.853 15.894C26.5914 15.4591 28.4433 14.4154 28.5956 14.3516C28.6308 14.3516 28.7304 14.5314 28.8359 14.8155L29.0293 15.3026Z" fill="#63AB45"/>
<path d="M18.8026 0.0116242C17.8357 0.139194 16.9507 0.301555 16.0658 0.730652C15.3977 1.05537 14.7414 1.49607 14.2374 2.04694C13.8271 2.49343 13.4462 2.96892 13.1708 3.51399C12.7312 4.38378 12.5613 5.28836 12.5613 6.25093C12.5613 6.55826 12.5378 6.86558 12.5964 7.16711C12.7547 8.03111 13.1122 8.85451 13.4638 9.64892C13.9854 10.8319 14.6007 11.9684 15.2219 13.0991C16.0072 14.5256 16.857 15.9173 17.7067 17.3089C17.9763 17.7496 18.2928 18.5904 18.9433 18.5266C19.5528 18.4629 19.7403 17.912 20.045 17.4713C20.7835 16.3985 21.4691 15.2678 22.1431 14.1487C22.9577 12.7918 23.7664 11.4291 24.4462 10.0027C24.8447 9.16763 25.2726 8.28045 25.4249 7.35847C25.466 7.10333 25.4484 6.84239 25.4601 6.58145C25.507 5.5377 25.2784 4.48815 24.7803 3.56037C24.4814 3.00951 24.1063 2.51662 23.6668 2.06433C23.1276 1.51346 22.4771 1.06117 21.7797 0.724854C21.0882 0.394333 20.3674 0.162388 19.6055 0.0522144C19.3418 0.02902 19.0664 -0.0231675 18.8026 0.0116242Z" fill="#63AB45"/>
<path d="M6.32706 6.4714C5.82307 6.53518 5.33079 6.54098 4.83851 6.68015C3.36754 7.09185 2.08411 7.95584 1.14644 9.15036C0.595555 9.85779 0.284952 10.7334 0.13258 11.6032C-0.26593 13.8531 0.361137 16.2711 2.17201 17.7903C2.71703 18.2484 3.39684 18.6891 4.07665 18.9211C5.18428 19.298 6.39153 19.3618 7.54603 19.4429C9.28658 19.5589 11.0447 19.5705 12.7911 19.5125C13.6819 19.4835 14.5727 19.4951 15.4635 19.4429C15.7624 19.4255 16.0788 19.4777 16.3777 19.4197C16.8876 19.3154 17.1982 18.8109 17.0224 18.318C16.9052 17.9875 16.6707 17.6744 16.5066 17.3612C16.1023 16.6074 15.692 15.8536 15.276 15.1056C14.2914 13.337 13.2717 11.5452 12.0644 9.91577C11.3963 9.01699 10.7341 8.04862 9.7437 7.46876C8.89394 6.97008 8.03245 6.60477 7.04204 6.51199C6.80176 6.48299 6.55562 6.43661 6.32706 6.4714Z" fill="#63AB45"/>
<path d="M10.13 20.4749C9.84866 20.5097 9.54978 20.4807 9.26848 20.4865C8.85239 20.4923 8.4363 20.5155 8.02021 20.5329C7.28179 20.5677 6.54338 20.6315 5.81082 20.7359C5.21892 20.817 4.61529 20.8924 4.05269 21.1012C3.40218 21.3389 2.78684 21.739 2.24768 22.1623C1.83745 22.4813 1.47996 22.8756 1.17522 23.2989C0.132058 24.7659 -0.213708 26.6505 0.126197 28.4016C0.255127 29.0685 0.448521 29.7643 0.788427 30.3616C1.04043 30.7965 1.40377 31.1908 1.76126 31.5445C3.15018 32.9304 5.16031 33.7422 7.14114 33.5044C8.2136 33.3768 9.33294 32.9246 10.1768 32.2577C11.1204 31.5155 11.8295 30.4427 12.4917 29.457C13.5232 27.9204 14.4784 26.3315 15.3692 24.7137C15.8204 23.8903 16.2658 23.0611 16.723 22.2377C16.9515 21.8202 17.2211 21.4143 16.9222 20.9562C16.5823 20.4285 15.715 20.5619 15.1641 20.5619C14.4022 20.5619 13.6404 20.4923 12.8785 20.4865C12.5445 20.4807 12.2046 20.4981 11.8705 20.4807C11.4837 20.4633 11.0911 20.4633 10.7043 20.4691C10.5168 20.4749 10.3234 20.4517 10.13 20.4749Z" fill="#63AB45"/>
<path d="M37.515 29.5033C36.3136 32.7795 32.0062 34.5481 28.8592 32.9129C28.0797 32.507 27.4175 32.0431 26.8549 31.3589C26.7201 31.1965 26.4095 30.9356 26.3802 30.721C26.2571 30.663 26.1809 30.5123 26.1048 30.4079C25.9114 30.147 25.718 29.886 25.5421 29.6135C24.9151 28.6625 24.3115 27.7057 23.7254 26.7374C23.4793 26.3315 23.239 25.9198 23.0046 25.5139C22.8522 25.2587 22.7057 25.0036 22.565 24.7543C22.1783 24.07 21.8032 23.38 21.4516 22.6841C21.2113 22.2087 20.7014 21.6404 20.9417 21.0837C21.2171 20.4343 21.9204 20.6256 22.4771 20.5735C23.2156 20.5039 23.9657 20.5329 24.7041 20.5155C25.5421 20.4923 26.3861 20.4575 27.23 20.4749C28.7302 20.5097 30.2305 20.5097 31.7249 20.6836C32.4516 20.7706 33.19 20.8576 33.8816 21.0953C34.2742 21.2345 34.6375 21.449 34.9892 21.6694C35.5635 22.0231 36.0851 22.4464 36.5129 22.9741C36.9641 23.5191 37.304 24.1396 37.5385 24.8006L37.6967 25.3109L37.7143 25.3631L37.7201 25.3863C38.0659 26.7374 37.9956 28.1986 37.515 29.5033Z" fill="#63AB45"/>
<path d="M25.4547 33.4118C25.4782 34.3395 25.3258 35.2093 24.9625 36.0733C24.7456 36.5836 24.4233 37.0475 24.0775 37.4824C23.638 38.0275 23.093 38.4971 22.4952 38.8741C21.7509 39.3437 20.9422 39.6743 20.0807 39.8714C17.5431 40.4513 14.6598 39.0074 13.3588 36.8329C12.6907 35.7138 12.4446 34.3685 12.5676 33.0812C12.6555 32.1419 13.0892 31.2141 13.4643 30.3617C14.1617 28.7961 14.9763 27.2768 15.8495 25.8098C16.4765 24.7544 17.0978 23.6991 17.7307 22.6495C17.8596 22.435 17.9768 22.203 18.1292 21.9943C18.1351 21.9769 18.1468 21.9653 18.1585 21.9479C18.3226 21.7276 18.5218 21.5536 18.8031 21.4898C19.1724 21.4028 19.4361 21.6174 19.6412 21.9015C19.8053 22.1161 19.9342 22.3712 20.0573 22.5568C20.5085 23.2236 20.9363 23.9078 21.3583 24.5979C21.5341 24.8762 21.7041 25.1545 21.874 25.4387C22.1026 25.8098 22.3253 26.1809 22.5538 26.5462C23.2864 27.7349 23.9662 28.9816 24.5581 30.2457C24.9156 31.0111 25.2848 31.8171 25.4196 32.6521C25.4606 32.9073 25.4489 33.1566 25.4547 33.4118Z" fill="#63AB45"/>
<path d="M57.568 11.752L57.208 13.912H53.176V28H50.344V13.912H46.24V11.752H57.568ZM62.4745 18.544C62.1865 18.544 61.8985 18.616 61.6105 18.76C61.3225 18.904 61.0665 19.104 60.8425 19.36C60.6185 19.6 60.4345 19.896 60.2905 20.248C60.1465 20.6 60.0745 20.992 60.0745 21.424V28H57.3385V21.952C57.3385 20.992 57.2745 20.192 57.1465 19.552C57.0185 18.896 56.8825 18.368 56.7385 17.968C56.5625 17.504 56.3705 17.128 56.1625 16.84L58.3225 15.976C58.4665 16.152 58.6185 16.368 58.7785 16.624C58.9065 16.848 59.0345 17.112 59.1625 17.416C59.2905 17.72 59.3945 18.08 59.4745 18.496C59.7945 17.568 60.2585 16.904 60.8665 16.504C61.4745 16.088 62.1625 15.88 62.9305 15.88C63.2985 15.88 63.6425 15.928 63.9625 16.024C64.2825 16.104 64.4345 16.144 64.4185 16.144L63.6505 18.808C63.6665 18.808 63.5705 18.768 63.3625 18.688C63.1705 18.592 62.8745 18.544 62.4745 18.544ZM68.5019 28.096C67.6539 28.096 67.0059 27.848 66.5579 27.352C66.1099 26.84 65.8859 26.184 65.8859 25.384V16.048H68.6219V25.144C68.6219 25.512 68.6779 25.76 68.7899 25.888C68.9019 26.016 69.0699 26.08 69.2939 26.08C69.3579 26.08 69.4219 26.08 69.4859 26.08C69.5659 26.08 69.6379 26.072 69.7019 26.056C69.7659 26.056 69.8379 26.048 69.9179 26.032L70.2059 27.76C70.0939 27.824 69.9499 27.88 69.7739 27.928C69.6299 27.976 69.4459 28.016 69.2219 28.048C69.0139 28.08 68.7739 28.096 68.5019 28.096ZM67.3019 10.72C67.8139 10.72 68.2059 10.872 68.4779 11.176C68.7499 11.48 68.8859 11.872 68.8859 12.352C68.8859 12.832 68.7419 13.232 68.4539 13.552C68.1819 13.872 67.7739 14.032 67.2299 14.032C66.7179 14.032 66.3179 13.88 66.0299 13.576C65.7579 13.256 65.6219 12.872 65.6219 12.424C65.6219 11.928 65.7579 11.52 66.0299 11.2C66.3179 10.88 66.7419 10.72 67.3019 10.72ZM72.3385 33.304V21.952C72.3385 20.992 72.2745 20.192 72.1465 19.552C72.0185 18.896 71.8825 18.368 71.7385 17.968C71.5625 17.504 71.3705 17.128 71.1625 16.84L73.3225 15.976C73.5145 16.168 73.6905 16.408 73.8505 16.696C73.9785 16.936 74.1065 17.232 74.2345 17.584C74.3625 17.92 74.4585 18.32 74.5225 18.784C74.7945 17.824 75.2265 17.096 75.8185 16.6C76.4105 16.104 77.2345 15.856 78.2905 15.856C79.0425 15.856 79.6905 16 80.2345 16.288C80.7945 16.56 81.2505 16.96 81.6025 17.488C81.9705 18 82.2425 18.624 82.4185 19.36C82.5945 20.096 82.6825 20.912 82.6825 21.808C82.6825 22.72 82.5465 23.568 82.2745 24.352C82.0025 25.12 81.6105 25.784 81.0985 26.344C80.6025 26.904 80.0025 27.344 79.2985 27.664C78.5945 27.984 77.8105 28.144 76.9465 28.144C76.6425 28.144 76.3305 28.128 76.0105 28.096C75.7065 28.064 75.3945 28.032 75.0745 28V32.824L72.3385 33.304ZM77.8345 17.776C77.4345 17.776 77.0665 17.912 76.7305 18.184C76.3945 18.456 76.0985 18.816 75.8425 19.264C75.6025 19.712 75.4105 20.216 75.2665 20.776C75.1385 21.336 75.0745 21.912 75.0745 22.504V25.96C75.2345 26.008 75.4745 26.064 75.7945 26.128C76.1145 26.192 76.3945 26.224 76.6345 26.224C77.2425 26.224 77.7465 26.12 78.1465 25.912C78.5465 25.704 78.8665 25.416 79.1065 25.048C79.3465 24.68 79.5145 24.24 79.6105 23.728C79.7065 23.216 79.7545 22.656 79.7545 22.048C79.7545 21.488 79.7385 20.952 79.7065 20.44C79.6745 19.928 79.5865 19.472 79.4425 19.072C79.3145 18.672 79.1225 18.36 78.8665 18.136C78.6105 17.896 78.2665 17.776 77.8345 17.776ZM94.6394 11.752H97.4954V28.024H95.1194L89.6474 19.48C89.3434 19.016 89.0074 18.496 88.6394 17.92C88.2874 17.328 87.9514 16.784 87.6314 16.288C87.6794 16.8 87.7194 17.336 87.7514 17.896C87.7994 18.456 87.8234 18.992 87.8234 19.504L87.8954 28H85.0394V11.704H87.2714L92.9114 20.152C93.2314 20.616 93.5514 21.112 93.8714 21.64C94.2074 22.152 94.5354 22.648 94.8554 23.128C94.8234 22.616 94.7914 22.104 94.7594 21.592C94.7274 21.064 94.7114 20.616 94.7114 20.248L94.6394 11.752ZM99.8556 22.312C99.8556 21.24 99.9996 20.296 100.288 19.48C100.592 18.664 101 17.984 101.512 17.44C102.04 16.88 102.656 16.464 103.36 16.192C104.064 15.904 104.824 15.76 105.64 15.76C106.36 15.76 106.968 15.848 107.464 16.024C107.976 16.2 108.392 16.44 108.712 16.744C109.032 17.048 109.264 17.408 109.408 17.824C109.568 18.24 109.648 18.688 109.648 19.168C109.648 19.744 109.488 20.296 109.168 20.824C108.848 21.336 108.384 21.792 107.776 22.192C107.184 22.576 106.464 22.888 105.616 23.128C104.768 23.352 103.816 23.472 102.76 23.488C102.808 23.856 102.88 24.208 102.976 24.544C103.088 24.864 103.24 25.152 103.432 25.408C103.64 25.648 103.904 25.84 104.224 25.984C104.544 26.128 104.944 26.2 105.424 26.2C105.776 26.2 106.152 26.16 106.552 26.08C106.952 26 107.32 25.904 107.656 25.792C108.056 25.664 108.448 25.52 108.832 25.36L109.552 27.064C109.136 27.272 108.688 27.456 108.208 27.616C107.792 27.76 107.312 27.888 106.768 28C106.224 28.112 105.648 28.168 105.04 28.168C104.112 28.168 103.32 28.032 102.664 27.76C102.008 27.472 101.472 27.072 101.056 26.56C100.64 26.048 100.336 25.432 100.144 24.712C99.9516 23.992 99.8556 23.192 99.8556 22.312ZM105.424 17.632C104.896 17.632 104.456 17.76 104.104 18.016C103.768 18.256 103.496 18.576 103.288 18.976C103.08 19.36 102.928 19.8 102.832 20.296C102.752 20.776 102.704 21.264 102.688 21.76C103.456 21.728 104.104 21.632 104.632 21.472C105.176 21.296 105.616 21.088 105.952 20.848C106.288 20.592 106.528 20.32 106.672 20.032C106.832 19.744 106.912 19.456 106.912 19.168C106.912 18.704 106.776 18.336 106.504 18.064C106.232 17.776 105.872 17.632 105.424 17.632ZM115.447 15.76C115.911 15.76 116.367 15.808 116.815 15.904C117.263 16 117.663 16.112 118.015 16.24C118.431 16.384 118.815 16.536 119.167 16.696L118.351 18.568C118.031 18.424 117.711 18.296 117.391 18.184C117.119 18.088 116.815 18 116.479 17.92C116.159 17.824 115.839 17.776 115.519 17.776C115.151 17.776 114.831 17.864 114.559 18.04C114.303 18.216 114.175 18.48 114.175 18.832C114.175 19.744 114.839 20.456 116.167 20.968C116.663 21.16 117.111 21.368 117.511 21.592C117.911 21.8 118.247 22.048 118.519 22.336C118.807 22.624 119.023 22.96 119.167 23.344C119.311 23.712 119.383 24.152 119.383 24.664C119.383 25.112 119.287 25.552 119.095 25.984C118.919 26.416 118.647 26.8 118.279 27.136C117.927 27.472 117.487 27.744 116.959 27.952C116.447 28.144 115.863 28.24 115.207 28.24C114.679 28.24 114.159 28.176 113.647 28.048C113.135 27.936 112.671 27.808 112.255 27.664C111.855 27.52 111.535 27.384 111.295 27.256L110.935 27.088L111.823 25.072L112.135 25.24C112.343 25.368 112.607 25.504 112.927 25.648C113.247 25.792 113.591 25.928 113.959 26.056C114.327 26.168 114.663 26.224 114.967 26.224C115.527 26.224 115.943 26.112 116.215 25.888C116.487 25.664 116.623 25.368 116.623 25C116.623 24.584 116.471 24.208 116.167 23.872C115.879 23.52 115.439 23.232 114.847 23.008C113.615 22.544 112.727 22.016 112.183 21.424C111.655 20.832 111.391 20.064 111.391 19.12C111.391 18.672 111.495 18.248 111.703 17.848C111.911 17.432 112.191 17.072 112.543 16.768C112.911 16.448 113.343 16.2 113.839 16.024C114.335 15.848 114.871 15.76 115.447 15.76ZM120.49 16.048H122.65L123.13 13.24L125.386 12.736V16.048H128.338L128.002 17.992H125.386V25.096C125.386 25.512 125.498 25.784 125.722 25.912C125.946 26.024 126.194 26.08 126.466 26.08C126.69 26.08 126.914 26.064 127.138 26.032C127.362 26 127.562 25.96 127.738 25.912C127.946 25.864 128.146 25.808 128.338 25.744L128.794 27.544L128.578 27.616C128.434 27.68 128.218 27.752 127.93 27.832C127.658 27.896 127.33 27.952 126.946 28C126.578 28.064 126.17 28.096 125.722 28.096C125.274 28.096 124.858 28.048 124.474 27.952C124.106 27.856 123.786 27.704 123.514 27.496C123.242 27.272 123.026 26.992 122.866 26.656C122.722 26.32 122.65 25.904 122.65 25.408V17.992H120.49V16.048Z" fill="black"/>
</g>
</g>
</g>
<defs>
<clipPath id="clip0_17_105">
<rect width="154" height="40" fill="white"/>
</clipPath>
<clipPath id="clip1_17_105">
<rect width="154" height="40" fill="white"/>
</clipPath>
<clipPath id="clip2_17_105">
<rect width="154" height="40" fill="white"/>
</clipPath>
</defs>
</svg>
