<svg width="198" height="55" viewBox="0 0 198 55" fill="none" xmlns="http://www.w3.org/2000/svg">
<mask id="mask0_1_3706" style="mask-type:alpha" maskUnits="userSpaceOnUse" x="0" y="0" width="198" height="55">
<g clip-path="url(#clip0_1_3706)">
<g clip-path="url(#clip1_1_3706)">
<path d="M98.0664 0.0460832C98.6476 -0.259502 99.3422 -0.259502 99.9235 0.0460832L109.926 5.30376C110.376 5.5405 110.9 5.59628 111.39 5.45971L126.751 1.17953C127.568 0.951842 128.44 1.26553 128.925 1.96168L132.153 6.59822C132.585 7.21931 133.332 7.54237 134.081 7.43244L151.312 4.90282C152.814 4.68249 154.002 6.15103 153.474 7.57298L153.139 8.47419C152.639 9.81908 153.678 11.2364 155.111 11.1629L170.007 10.3983C171.738 10.3094 172.48 12.5635 171.033 13.5205C169.65 14.4359 170.258 16.5877 171.916 16.6441L181.622 16.9741C183.496 17.0378 183.875 19.6557 182.097 20.2488C180.4 20.815 180.644 23.2878 182.419 23.5114L185.365 23.8822C187.495 24.1504 187.576 27.2071 185.463 27.5888L184.891 27.6924C183.033 28.0281 182.949 30.6626 184.782 31.1157C186.712 31.5926 186.48 34.407 184.498 34.5617L178.041 35.0657C176.331 35.1991 175.919 37.5195 177.478 38.2329C179.108 38.9787 178.565 41.4202 176.773 41.405L164.292 41.2993C162.669 41.2855 161.811 43.2165 162.91 44.4122C164.063 45.666 163.06 47.6803 161.364 47.5166L144.83 45.9191C143.78 45.8177 142.832 46.551 142.666 47.593L142.187 50.6122C142.01 51.7359 140.929 52.4836 139.815 52.2545L122.909 48.7804C122.332 48.6619 121.734 48.8041 121.271 49.1688L114.606 54.4308C114.056 54.8646 113.319 54.9788 112.664 54.7316L99.6995 49.84C99.2454 49.6687 98.7444 49.6687 98.2904 49.84L85.3259 54.7316C84.6708 54.9788 83.9343 54.8646 83.3847 54.4308L76.7187 49.1688C76.2566 48.8041 75.6569 48.6619 75.0803 48.7804L58.1751 52.2545C57.0606 52.4836 55.9804 51.7359 55.8021 50.6122L55.3231 47.593C55.1578 46.551 54.21 45.8177 53.1599 45.9191L36.6249 47.5166C34.9298 47.6803 33.9271 45.666 35.0796 44.4122C36.1788 43.2165 35.3211 41.2855 33.6971 41.2993L21.217 41.405C19.4249 41.4202 18.8819 38.9787 20.5116 38.2329C22.0705 37.5195 21.6587 35.1991 19.9494 35.0657L13.4914 34.5617C11.5093 34.407 11.2775 31.5926 13.2077 31.1157C15.0413 30.6626 14.9577 28.0281 13.099 27.6924L12.5259 27.5888C10.4132 27.2071 10.4951 24.1504 12.6251 23.8822L15.5706 23.5114C17.3454 23.2878 17.5895 20.815 15.8927 20.2488C14.1148 19.6557 14.4945 17.0378 16.3676 16.9741L26.0741 16.6441C27.7321 16.5877 28.3398 14.4359 26.9563 13.5205C25.5098 12.5635 26.2516 10.3094 27.9837 10.3983L42.8783 11.1629C44.3113 11.2364 45.3513 9.81908 44.8514 8.47419L44.5164 7.57299C43.9878 6.15104 45.1761 4.68249 46.677 4.90282L63.9091 7.43244C64.6579 7.54237 65.4044 7.21931 65.8369 6.59822L69.0652 1.96169C69.55 1.26553 70.4218 0.951842 71.2389 1.17954L86.5993 5.45971C87.0895 5.59628 87.6133 5.5405 88.0637 5.30376L98.0664 0.0460832Z" fill="#63AB45"/>
</g>
</g>
</mask>
<g mask="url(#mask0_1_3706)">
<rect width="197.6" height="55" transform="translate(0.199951)" fill="#63AB45"/>
<path d="M46.2468 37.2002C45.6628 37.2152 45.1836 37.1104 44.8093 36.8857C44.42 36.6611 44.1205 36.3317 43.9108 35.8975C43.6862 35.4782 43.544 34.9616 43.4841 34.3477C43.4242 33.7487 43.4242 33.0898 43.4841 32.3711C43.559 31.8171 43.6937 31.2406 43.8884 30.6416C44.0531 30.1325 44.3077 29.571 44.6521 28.957C44.9815 28.3431 45.4307 27.7441 45.9997 27.1602C46.1195 27.1901 46.2168 27.2275 46.2917 27.2725C46.3666 27.3024 46.4265 27.3398 46.4714 27.3848C46.5163 27.4447 46.5463 27.4971 46.5612 27.542C46.5912 27.7067 46.5463 27.8939 46.4265 28.1035C46.3067 28.3132 46.1869 28.5378 46.0671 28.7773C45.7377 29.4661 45.4906 30.1175 45.3259 30.7314C45.1612 31.3454 45.0564 31.9144 45.0114 32.4385C44.9815 32.8877 44.989 33.292 45.0339 33.6514C45.0638 34.0257 45.1162 34.3402 45.1911 34.5947C45.266 34.8643 45.3483 35.0664 45.4382 35.2012C45.528 35.3509 45.6104 35.4258 45.6853 35.4258C45.7601 35.4258 45.835 35.3734 45.9099 35.2686C45.9997 35.1637 46.0821 35.0365 46.1569 34.8867C46.2468 34.737 46.3516 34.5049 46.4714 34.1904C46.5912 33.891 46.7185 33.5391 46.8532 33.1348C46.988 32.7305 47.1153 32.2962 47.2351 31.832C47.3698 31.3529 47.4896 30.8737 47.5944 30.3945C47.8041 29.4362 48.0287 28.3581 48.2683 27.1602C48.5078 25.9473 48.8597 24.682 49.3239 23.3643C49.4737 22.8102 49.6608 22.2038 49.8855 21.5449C50.0651 20.9759 50.2897 20.3171 50.5593 19.5684C50.8438 18.8047 51.1657 17.9811 51.5251 17.0977C51.5251 17.0228 51.585 16.9554 51.7048 16.8955C51.8396 16.8206 51.9893 16.7458 52.154 16.6709C52.3337 16.596 52.5358 16.5212 52.7605 16.4463C53.0599 16.3415 53.292 16.2816 53.4567 16.2666C53.6364 16.2516 53.7712 16.2741 53.861 16.334C53.9509 16.3939 54.0108 16.4762 54.0407 16.5811C54.0707 16.6709 54.0856 16.7757 54.0856 16.8955C54.1156 17.3896 54.1306 17.8538 54.1306 18.2881C54.1455 18.7223 54.1605 19.1042 54.1755 19.4336C54.1905 19.8229 54.198 20.1748 54.198 20.4893C54.2129 20.9085 54.1905 21.4701 54.1306 22.1738C54.0707 22.8626 54.0033 23.5889 53.9284 24.3525C53.8685 25.1162 53.8086 25.8649 53.7487 26.5986C53.7038 27.3174 53.6963 27.9163 53.7263 28.3955C53.7263 28.6501 53.7338 28.8896 53.7487 29.1143C53.7787 29.3239 53.8086 29.5335 53.8386 29.7432C54.0332 29.2041 54.2504 28.6426 54.4899 28.0586C54.7295 27.4596 54.9691 26.8906 55.2087 26.3516C55.4483 25.7975 55.6729 25.2884 55.8825 24.8242C56.0922 24.3451 56.2569 23.9482 56.3767 23.6338C56.5564 23.2145 56.7959 22.6829 57.0954 22.0391C57.3949 21.3952 57.6944 20.7513 57.9939 20.1074C58.3083 19.4635 58.5928 18.8721 58.8474 18.333C59.1169 17.7939 59.3116 17.4196 59.4314 17.21C59.5212 17.0602 59.6709 16.9255 59.8806 16.8057C60.1052 16.6859 60.3373 16.5811 60.5769 16.4912C60.8314 16.4014 61.0635 16.3415 61.2731 16.3115C61.4978 16.2666 61.6475 16.2591 61.7224 16.2891C61.917 16.334 62.0518 16.3939 62.1267 16.4688C62.2165 16.5436 62.2689 16.596 62.2839 16.626C62.3138 16.6859 62.3363 16.7907 62.3513 16.9404C62.3662 17.0752 62.3588 17.2923 62.3288 17.5918C62.2989 17.9512 62.209 18.4977 62.0593 19.2314C61.9245 19.9652 61.7523 20.8037 61.5427 21.7471C61.348 22.6755 61.1309 23.6712 60.8913 24.7344C60.6667 25.7975 60.4496 26.8457 60.2399 27.8789C60.0303 28.8971 59.8431 29.8555 59.6784 30.7539C59.5287 31.6523 59.4314 32.4085 59.3864 33.0225C59.3565 33.7113 59.4014 34.3177 59.5212 34.8418C59.5661 35.0664 59.6335 35.2835 59.7233 35.4932C59.8132 35.7028 59.933 35.8825 60.0827 36.0322C60.2325 36.1969 60.4121 36.3167 60.6218 36.3916C60.8314 36.4665 61.0785 36.4889 61.363 36.459C60.9886 36.7135 60.6218 36.9007 60.2624 37.0205C59.903 37.1403 59.5511 37.2002 59.2067 37.2002C58.8324 37.2152 58.503 37.1553 58.2185 37.0205C57.934 36.9007 57.6944 36.721 57.4997 36.4814C57.305 36.2568 57.1628 35.9798 57.073 35.6504C56.9831 35.3359 56.9532 34.984 56.9831 34.5947C57.0131 34.2354 57.1104 33.6439 57.2751 32.8203C57.4398 31.9967 57.6345 31.0684 57.8591 30.0352C58.0987 28.987 58.3532 27.9014 58.6228 26.7783C58.9073 25.6403 59.1693 24.5771 59.4089 23.5889C59.6634 22.5856 59.8806 21.7246 60.0603 21.0059C60.2399 20.2871 60.3522 19.8154 60.3972 19.5908C60.4271 19.4111 60.4496 19.2464 60.4646 19.0967C60.4945 18.932 60.5244 18.7897 60.5544 18.6699C60.4047 18.9694 60.2175 19.3288 59.9929 19.748C59.7832 20.1673 59.5586 20.6165 59.319 21.0957C59.0795 21.5749 58.8324 22.0765 58.5778 22.6006C58.3383 23.1097 58.1062 23.6038 57.8815 24.083C57.5072 24.8617 57.1403 25.6628 56.781 26.4863C56.4216 27.2949 56.0996 28.0661 55.8151 28.7998C55.5306 29.5335 55.2911 30.1924 55.0964 30.7764C54.9167 31.3604 54.8119 31.8096 54.7819 32.124V32.4385C54.7819 32.5283 54.7819 32.6331 54.7819 32.7529C54.7969 32.8727 54.8194 32.985 54.8493 33.0898L53.9509 33.7861C53.8161 33.8311 53.6963 33.8685 53.5915 33.8984C53.5017 33.9284 53.4118 33.9434 53.322 33.9434C52.9776 33.9434 52.7155 33.7637 52.5358 33.4043C52.3562 33.0749 52.1914 32.431 52.0417 31.4727C51.892 30.5143 51.847 29.3389 51.9069 27.9463C51.9369 27.2575 51.9818 26.5612 52.0417 25.8574C52.1166 25.1536 52.184 24.4798 52.2439 23.8359C52.3187 23.1921 52.3861 22.5931 52.446 22.0391C52.5059 21.4701 52.5358 20.9834 52.5358 20.5791C52.5508 20.2796 52.5433 20.0101 52.5134 19.7705C52.4834 19.516 52.4535 19.2839 52.4235 19.0742C52.2888 19.4186 52.139 19.8903 51.9743 20.4893C51.8096 21.0732 51.6374 21.7246 51.4577 22.4434C51.278 23.1621 51.0909 23.9183 50.8962 24.7119C50.7165 25.5055 50.5368 26.2692 50.3571 27.0029C50.1924 27.7367 50.0352 28.418 49.8855 29.0469C49.7357 29.6608 49.6159 30.1549 49.5261 30.5293C49.3763 31.1283 49.2266 31.8096 49.0769 32.5732C48.9271 33.3369 48.7399 34.0557 48.5153 34.7295C48.2907 35.4183 47.9987 35.9948 47.6394 36.459C47.28 36.9382 46.8158 37.1852 46.2468 37.2002ZM73.4631 28.3281C73.0139 28.987 72.5048 29.6309 71.9358 30.2598C71.3668 30.8737 70.7603 31.4277 70.1165 31.9219C69.4876 32.401 68.8362 32.7904 68.1624 33.0898C67.5035 33.3893 66.8596 33.5391 66.2307 33.5391C65.9013 33.5391 65.5419 33.4567 65.1526 33.292C64.7783 33.1423 64.4339 32.9027 64.1194 32.5732C63.8049 32.2438 63.5504 31.8171 63.3557 31.293C63.176 30.7689 63.1236 30.1325 63.1985 29.3838C63.2584 28.7699 63.4456 28.126 63.76 27.4521C64.0895 26.7633 64.4863 26.1344 64.9505 25.5654C65.4296 24.9964 65.9612 24.5247 66.5452 24.1504C67.1441 23.776 67.7431 23.5889 68.3421 23.5889C68.9111 23.5889 69.3228 23.7311 69.5774 24.0156C69.832 24.3001 69.9443 24.652 69.9143 25.0713C69.8694 25.5355 69.7346 25.9622 69.51 26.3516C69.3004 26.7409 69.0458 27.0928 68.7464 27.4072C68.4469 27.7217 68.1249 28.0062 67.7805 28.2607C67.4511 28.5153 67.1367 28.7474 66.8372 28.957C66.5077 29.1816 66.1933 29.3988 65.8938 29.6084C65.5943 29.8031 65.3323 29.9827 65.1077 30.1475C65.1227 30.5218 65.19 30.8363 65.3098 31.0908C65.4296 31.3454 65.5794 31.555 65.759 31.7197C65.9387 31.8695 66.1409 31.9818 66.3655 32.0566C66.6051 32.1165 66.8447 32.1465 67.0842 32.1465C67.5934 32.1465 68.1249 31.9893 68.679 31.6748C69.233 31.3454 69.7721 30.9561 70.2962 30.5068C70.8352 30.0426 71.3294 29.5635 71.7786 29.0693C72.2428 28.5752 72.6246 28.1484 72.9241 27.7891C73.0289 27.6693 73.1337 27.6019 73.2385 27.5869C73.3583 27.557 73.4482 27.5719 73.5081 27.6318C73.5829 27.6768 73.6204 27.7666 73.6204 27.9014C73.6204 28.0212 73.568 28.1634 73.4631 28.3281ZM67.7131 24.8691C67.5335 24.8691 67.3163 24.959 67.0618 25.1387C66.8222 25.3184 66.5826 25.5804 66.343 25.9248C66.1034 26.2542 65.8788 26.666 65.6692 27.1602C65.4596 27.6393 65.3023 28.1934 65.1975 28.8223C65.3772 28.6875 65.5719 28.5527 65.7815 28.418C65.9911 28.2682 66.2008 28.111 66.4104 27.9463C67.0543 27.4521 67.5035 27.0179 67.7581 26.6436C68.0126 26.2692 68.1549 25.9473 68.1848 25.6777C68.2148 25.3932 68.1848 25.1911 68.095 25.0713C68.0051 24.9365 67.8779 24.8691 67.7131 24.8691ZM82.3514 30.0352C81.7225 30.8288 81.161 31.4577 80.6668 31.9219C80.1877 32.3711 79.7609 32.708 79.3865 32.9326C79.0122 33.1572 78.6828 33.2995 78.3983 33.3594C78.1138 33.4193 77.8592 33.4492 77.6346 33.4492C77.3501 33.4492 77.1105 33.3818 76.9158 33.2471C76.7212 33.1123 76.5565 32.9476 76.4217 32.7529C76.2869 32.5583 76.1821 32.3561 76.1072 32.1465C76.0324 31.9368 75.9725 31.7572 75.9276 31.6074C75.8677 31.4427 75.8003 31.2555 75.7254 31.0459C75.6655 30.8363 75.5981 30.6042 75.5233 30.3496C75.2238 30.6641 74.9093 31.001 74.5799 31.3604C74.2954 31.6598 73.9735 32.0042 73.6141 32.3936C73.2547 32.7679 72.8878 33.1497 72.5135 33.5391C72.3787 33.569 72.2589 33.569 72.1541 33.5391C72.0493 33.5091 71.9595 33.4792 71.8846 33.4492C71.7947 33.4043 71.7199 33.3519 71.66 33.292C71.6151 33.2471 71.5701 33.1947 71.5252 33.1348C71.4953 33.0898 71.4653 33.0374 71.4354 32.9775C71.3905 32.9027 71.3755 32.8278 71.3905 32.7529C71.8247 32.2588 72.2515 31.7721 72.6707 31.293C73.105 30.7988 73.4943 30.3571 73.8387 29.9678C74.228 29.5186 74.6024 29.0843 74.9617 28.665C74.7521 28.096 74.5649 27.5645 74.4002 27.0703C74.2355 26.5762 74.1157 26.2243 74.0408 26.0146C73.8911 25.5804 73.7563 25.221 73.6365 24.9365C73.5317 24.652 73.3446 24.4499 73.075 24.3301C73.2547 24.1654 73.4269 24.0381 73.5916 23.9482C73.7713 23.8434 73.9285 23.7686 74.0633 23.7236C74.228 23.6637 74.3703 23.6338 74.4901 23.6338C74.8345 23.6338 75.1339 23.9408 75.3885 24.5547C75.658 25.1536 75.9276 25.9847 76.1971 27.0479C76.1971 27.0928 76.2121 27.1452 76.242 27.2051C76.5565 26.8307 76.8559 26.4788 77.1405 26.1494C77.4399 25.82 77.6945 25.528 77.9041 25.2734C78.1287 25.0189 78.3084 24.8167 78.4432 24.667C78.578 24.5173 78.6603 24.4274 78.6903 24.3975C78.9897 24.0531 79.2593 23.8584 79.4988 23.8135C79.7384 23.7686 79.9556 23.821 80.1502 23.9707C80.2401 24.0306 80.3374 24.0905 80.4422 24.1504C80.6369 24.2702 80.869 24.3825 81.1385 24.4873C80.8839 24.7269 80.5994 25.0039 80.285 25.3184C79.9855 25.6178 79.701 25.9098 79.4315 26.1943C79.117 26.5238 78.8026 26.8532 78.4881 27.1826C78.2635 27.4072 77.994 27.6842 77.6795 28.0137C77.38 28.3431 77.0581 28.7025 76.7137 29.0918C76.8185 29.4661 76.9308 29.818 77.0506 30.1475C77.1704 30.4769 77.2902 30.7689 77.41 31.0234C77.5447 31.278 77.6795 31.4801 77.8143 31.6299C77.949 31.7796 78.0913 31.8545 78.241 31.8545C78.4806 31.8545 78.7502 31.7946 79.0496 31.6748C79.3491 31.54 79.6636 31.3604 79.993 31.1357C80.3224 30.9111 80.6518 30.6491 80.9813 30.3496C81.3257 30.0501 81.6626 29.7357 81.992 29.4062C82.1118 29.2865 82.2241 29.2191 82.3289 29.2041C82.4487 29.1891 82.5311 29.2116 82.576 29.2715C82.6209 29.3314 82.6284 29.4287 82.5985 29.5635C82.5835 29.6982 82.5011 29.8555 82.3514 30.0352ZM87.3539 19.7705C87.309 19.9352 87.2191 20.0999 87.0844 20.2646C86.9646 20.4144 86.8223 20.5417 86.6576 20.6465C86.5079 20.7363 86.3506 20.7962 86.1859 20.8262C86.0212 20.8561 85.8864 20.8262 85.7816 20.7363C85.4672 20.4967 85.3025 20.2422 85.2875 19.9727C85.2725 19.6882 85.3399 19.4261 85.4896 19.1865C85.6394 18.932 85.8265 18.7223 86.0512 18.5576C86.2758 18.3779 86.4704 18.2731 86.6351 18.2432C86.7999 18.2132 86.9346 18.2507 87.0394 18.3555C87.1592 18.4453 87.2491 18.5726 87.309 18.7373C87.3689 18.887 87.3988 19.0592 87.3988 19.2539C87.4138 19.4486 87.3988 19.6208 87.3539 19.7705ZM84.2543 24.5547C84.3291 24.4648 84.4714 24.39 84.681 24.3301C84.8907 24.2702 85.1078 24.2253 85.3324 24.1953C85.557 24.1504 85.7592 24.1279 85.9389 24.1279C86.1335 24.113 86.2458 24.113 86.2758 24.1279C86.2907 24.1429 86.2533 24.3001 86.1635 24.5996C86.0736 24.8991 85.9613 25.251 85.8265 25.6553C85.6918 26.0596 85.5495 26.4788 85.3998 26.9131C85.25 27.3324 85.1377 27.6768 85.0629 27.9463C84.988 28.2158 84.8982 28.5228 84.7933 28.8672C84.6885 29.1966 84.5912 29.526 84.5014 29.8555C84.4265 30.1699 84.3741 30.4694 84.3441 30.7539C84.3142 31.0384 84.3366 31.2555 84.4115 31.4053C84.4864 31.585 84.5687 31.7122 84.6586 31.7871C84.7484 31.847 84.8458 31.877 84.9506 31.877C85.25 31.877 85.6244 31.7122 86.0736 31.3828C86.5378 31.0534 87.002 30.6641 87.4662 30.2148C87.9454 29.7507 88.3871 29.2865 88.7914 28.8223C89.1957 28.3431 89.4952 27.9613 89.6898 27.6768C89.8096 27.527 89.9294 27.4297 90.0492 27.3848C90.184 27.3398 90.2888 27.3473 90.3637 27.4072C90.4535 27.4671 90.4984 27.5645 90.4984 27.6992C90.5134 27.834 90.4685 27.9912 90.3637 28.1709C90.1241 28.5902 89.7722 29.0918 89.308 29.6758C88.8438 30.2448 88.3497 30.7988 87.8256 31.3379C87.3015 31.862 86.7849 32.3112 86.2758 32.6855C85.7816 33.0599 85.3773 33.2546 85.0629 33.2695C84.8083 33.2845 84.5538 33.2396 84.2992 33.1348C84.0596 33.0449 83.835 32.9176 83.6254 32.7529C83.4307 32.5732 83.266 32.3711 83.1312 32.1465C82.9965 31.9069 82.9216 31.6598 82.9066 31.4053C82.8617 31.0309 82.8617 30.5218 82.9066 29.8779C82.9515 29.2191 83.0339 28.5527 83.1537 27.8789C83.2735 27.1901 83.4232 26.5387 83.6029 25.9248C83.7976 25.3109 84.0147 24.8542 84.2543 24.5547ZM93.2324 32.2363C93.6966 32.2363 94.2057 32.0566 94.7597 31.6973C95.3287 31.3229 95.8753 30.8887 96.3994 30.3945C96.9384 29.9004 97.4251 29.3988 97.8593 28.8896C98.3085 28.3656 98.6455 27.9463 98.8701 27.6318C99.0048 27.4372 99.1321 27.3249 99.2519 27.2949C99.3717 27.25 99.4615 27.265 99.5214 27.3398C99.5813 27.4147 99.6038 27.5345 99.5888 27.6992C99.5738 27.849 99.5065 28.0212 99.3867 28.2158C99.2818 28.3955 99.1022 28.6576 98.8476 29.002C98.608 29.3314 98.316 29.6982 97.9716 30.1025C97.6422 30.4919 97.2604 30.8962 96.8261 31.3154C96.4068 31.7197 95.9651 32.0941 95.5009 32.4385C95.0367 32.7679 94.5576 33.0374 94.0634 33.2471C93.5693 33.4717 93.0826 33.584 92.6035 33.584C91.9446 33.584 91.3906 33.4567 90.9413 33.2021C90.5071 32.9626 90.1552 32.6481 89.8857 32.2588C89.6311 31.8695 89.4514 31.4427 89.3466 30.9785C89.2418 30.4993 89.1894 30.0277 89.1894 29.5635C89.1894 29.0993 89.2942 28.5228 89.5038 27.834C89.7135 27.1452 90.0205 26.4863 90.4247 25.8574C90.844 25.2135 91.3681 24.667 91.997 24.2178C92.6259 23.7536 93.3671 23.5215 94.2206 23.5215C94.6998 23.5215 95.1041 23.6862 95.4335 24.0156C95.7779 24.3451 95.9427 24.7943 95.9277 25.3633C95.9277 25.6328 95.8828 25.9023 95.7929 26.1719C95.7031 26.4264 95.5833 26.6585 95.4335 26.8682C95.2838 27.0628 95.1041 27.2201 94.8945 27.3398C94.6998 27.4596 94.4827 27.5195 94.2431 27.5195C94.0484 27.5195 93.8987 27.4521 93.7939 27.3174C93.704 27.1676 93.6441 27.0029 93.6142 26.8232C93.5992 26.6286 93.5992 26.4414 93.6142 26.2617C93.6441 26.082 93.6741 25.9622 93.704 25.9023C93.7789 25.7975 93.8613 25.7227 93.9511 25.6777C94.041 25.6328 94.1458 25.5804 94.2656 25.5205C94.3554 25.4756 94.4228 25.4082 94.4677 25.3184C94.5276 25.2285 94.5576 25.1312 94.5576 25.0264C94.5576 24.9215 94.5276 24.8317 94.4677 24.7568C94.4078 24.682 94.3105 24.6445 94.1757 24.6445C94.041 24.6445 93.7939 24.7568 93.4345 24.9814C93.0901 25.1911 92.7307 25.513 92.3564 25.9473C91.997 26.3665 91.6751 26.8981 91.3906 27.542C91.1061 28.1859 90.9563 28.9346 90.9413 29.7881C90.9264 30.2822 90.9938 30.6865 91.1435 31.001C91.2932 31.3154 91.4804 31.5625 91.705 31.7422C91.9296 31.9219 92.1767 32.0492 92.4462 32.124C92.7158 32.1989 92.9778 32.2363 93.2324 32.2363ZM105.108 29.4287C104.958 29.9977 104.756 30.5293 104.501 31.0234C104.247 31.5176 103.94 31.9443 103.581 32.3037C103.236 32.6631 102.839 32.9401 102.39 33.1348C101.956 33.3444 101.477 33.4492 100.953 33.4492C100.339 33.4492 99.8521 33.3145 99.4927 33.0449C99.1483 32.7904 98.8862 32.4684 98.7065 32.0791C98.5418 31.6898 98.4445 31.263 98.4146 30.7988C98.3696 30.3346 98.3472 29.9004 98.3472 29.4961C98.3472 29.2116 98.3846 28.8971 98.4595 28.5527C98.5194 28.2083 98.6092 27.8564 98.729 27.4971C98.8488 27.1377 98.9985 26.7783 99.1782 26.4189C99.3729 26.0596 99.5975 25.7301 99.8521 25.4307C99.9419 25.1761 100.077 24.9515 100.256 24.7568C100.451 24.5622 100.668 24.4049 100.908 24.2852C101.162 24.1504 101.432 24.0531 101.716 23.9932C102.001 23.9183 102.278 23.8809 102.547 23.8809C102.592 23.8809 102.63 23.8883 102.66 23.9033C102.705 23.9183 102.75 23.9333 102.794 23.9482C102.989 23.9632 103.229 24.0381 103.513 24.1729C103.813 24.3076 104.097 24.5098 104.367 24.7793C104.651 25.0488 104.891 25.3932 105.085 25.8125C105.28 26.2168 105.377 26.7109 105.377 27.2949C105.377 27.4147 105.37 27.5645 105.355 27.7441C105.34 27.9089 105.325 28.0511 105.31 28.1709C105.654 28.0361 106.014 27.8714 106.388 27.6768C106.763 27.4821 107.122 27.2799 107.466 27.0703C107.826 26.8457 108.155 26.6211 108.455 26.3965C108.754 26.1719 108.994 25.9697 109.173 25.79C109.323 25.6553 109.45 25.5804 109.555 25.5654C109.66 25.5505 109.735 25.5804 109.78 25.6553C109.825 25.7301 109.832 25.835 109.802 25.9697C109.772 26.1045 109.69 26.2542 109.555 26.4189C109.48 26.5088 109.286 26.6885 108.971 26.958C108.672 27.2275 108.312 27.5195 107.893 27.834C107.474 28.1484 107.017 28.4554 106.523 28.7549C106.029 29.0544 105.557 29.279 105.108 29.4287ZM101.312 26.0146C101.267 26.1494 101.245 26.2917 101.245 26.4414C101.245 26.681 101.26 26.9355 101.29 27.2051C101.32 27.4596 101.394 27.6917 101.514 27.9014C101.634 28.111 101.821 28.2907 102.076 28.4404C102.345 28.5752 102.712 28.6426 103.176 28.6426C103.251 28.6426 103.326 28.6426 103.401 28.6426C103.476 28.6276 103.551 28.6126 103.625 28.5977C103.67 28.403 103.708 28.2308 103.738 28.0811C103.783 27.9163 103.805 27.7741 103.805 27.6543C103.835 27.3698 103.835 27.0778 103.805 26.7783C103.775 26.4788 103.715 26.2093 103.625 25.9697C103.551 25.7152 103.446 25.513 103.311 25.3633C103.191 25.1986 103.042 25.1162 102.862 25.1162C102.577 25.1162 102.3 25.1986 102.031 25.3633C101.776 25.513 101.537 25.7301 101.312 26.0146ZM99.8745 29.9678C99.8745 30.2373 99.8895 30.5068 99.9194 30.7764C99.9494 31.0309 100.009 31.263 100.099 31.4727C100.189 31.6673 100.309 31.832 100.458 31.9668C100.608 32.0866 100.803 32.1465 101.042 32.1465C101.312 32.1465 101.559 32.0866 101.784 31.9668C102.008 31.832 102.21 31.6673 102.39 31.4727C102.57 31.263 102.727 31.0309 102.862 30.7764C103.012 30.5068 103.139 30.2298 103.244 29.9453C103.139 29.9603 103.034 29.9753 102.929 29.9902C102.839 29.9902 102.735 29.9902 102.615 29.9902C102.046 29.9902 101.552 29.8255 101.132 29.4961C100.728 29.1517 100.414 28.7174 100.189 28.1934C100.099 28.5078 100.024 28.8148 99.9644 29.1143C99.9045 29.4137 99.8745 29.6982 99.8745 29.9678ZM120.167 37.1777C119.418 37.1777 118.737 36.998 118.123 36.6387C117.524 36.2793 117.007 35.7852 116.573 35.1562C116.154 34.5273 115.832 33.7936 115.607 32.9551C115.397 32.1016 115.308 31.1956 115.338 30.2373C115.367 29.3389 115.48 28.3656 115.674 27.3174C115.884 26.2692 116.176 25.221 116.55 24.1729C116.925 23.1097 117.374 22.0915 117.898 21.1182C118.437 20.1299 119.051 19.2614 119.74 18.5127C120.429 17.764 121.192 17.165 122.031 16.7158C122.869 16.2516 123.79 16.0195 124.794 16.0195C125.408 16.0195 125.924 16.1468 126.343 16.4014C126.778 16.641 127.122 16.9629 127.377 17.3672C127.646 17.7715 127.833 18.2282 127.938 18.7373C128.043 19.2464 128.088 19.763 128.073 20.2871C128.043 20.7812 127.968 21.2604 127.848 21.7246C127.743 22.1888 127.586 22.6081 127.377 22.9824C127.182 23.3418 126.935 23.6338 126.635 23.8584C126.351 24.068 126.021 24.1729 125.647 24.1729C125.467 24.1579 125.295 24.098 125.13 23.9932C124.981 23.9033 124.824 23.7686 124.659 23.5889C124.509 23.4092 124.367 23.1471 124.232 22.8027C124.636 22.638 124.951 22.3535 125.175 21.9492C125.415 21.5299 125.595 21.0957 125.714 20.6465C125.849 20.1374 125.939 19.5684 125.984 18.9395C126.014 18.3255 125.887 17.8763 125.602 17.5918C125.318 17.3073 124.996 17.165 124.636 17.165C123.933 17.165 123.191 17.5319 122.413 18.2656C121.634 18.9993 120.908 19.9951 120.234 21.2529C119.575 22.4958 119.014 23.9482 118.549 25.6104C118.1 27.2725 117.838 29.0319 117.763 30.8887C117.733 31.7272 117.786 32.4385 117.921 33.0225C118.07 33.6064 118.272 34.0856 118.527 34.46C118.797 34.8343 119.096 35.1038 119.425 35.2686C119.755 35.4333 120.084 35.5156 120.414 35.5156C120.938 35.5156 121.432 35.4033 121.896 35.1787C122.36 34.9541 122.78 34.6771 123.154 34.3477C123.543 34.0182 123.873 33.6738 124.142 33.3145C124.427 32.9701 124.644 32.6631 124.794 32.3936C124.898 32.1989 125.011 32.0791 125.13 32.0342C125.25 31.9893 125.355 32.0042 125.445 32.0791C125.535 32.139 125.595 32.2438 125.625 32.3936C125.655 32.5283 125.625 32.693 125.535 32.8877C125.28 33.3968 124.966 33.9059 124.591 34.415C124.232 34.9242 123.82 35.3809 123.356 35.7852C122.907 36.2044 122.413 36.5413 121.874 36.7959C121.335 37.0505 120.766 37.1777 120.167 37.1777ZM133.592 19.7705C133.547 19.9352 133.457 20.0999 133.322 20.2646C133.203 20.4144 133.06 20.5417 132.896 20.6465C132.746 20.7363 132.589 20.7962 132.424 20.8262C132.259 20.8561 132.125 20.8262 132.02 20.7363C131.705 20.4967 131.541 20.2422 131.526 19.9727C131.511 19.6882 131.578 19.4261 131.728 19.1865C131.877 18.932 132.065 18.7223 132.289 18.5576C132.514 18.3779 132.709 18.2731 132.873 18.2432C133.038 18.2132 133.173 18.2507 133.278 18.3555C133.397 18.4453 133.487 18.5726 133.547 18.7373C133.607 18.887 133.637 19.0592 133.637 19.2539C133.652 19.4486 133.637 19.6208 133.592 19.7705ZM130.492 24.5547C130.567 24.4648 130.709 24.39 130.919 24.3301C131.129 24.2702 131.346 24.2253 131.57 24.1953C131.795 24.1504 131.997 24.1279 132.177 24.1279C132.372 24.113 132.484 24.113 132.514 24.1279C132.529 24.1429 132.491 24.3001 132.402 24.5996C132.312 24.8991 132.199 25.251 132.065 25.6553C131.93 26.0596 131.788 26.4788 131.638 26.9131C131.488 27.3324 131.376 27.6768 131.301 27.9463C131.226 28.2158 131.136 28.5228 131.031 28.8672C130.927 29.1966 130.829 29.526 130.739 29.8555C130.665 30.1699 130.612 30.4694 130.582 30.7539C130.552 31.0384 130.575 31.2555 130.65 31.4053C130.724 31.585 130.807 31.7122 130.897 31.7871C130.987 31.847 131.084 31.877 131.189 31.877C131.488 31.877 131.862 31.7122 132.312 31.3828C132.776 31.0534 133.24 30.6641 133.704 30.2148C134.183 29.7507 134.625 29.2865 135.029 28.8223C135.434 28.3431 135.733 27.9613 135.928 27.6768C136.048 27.527 136.167 27.4297 136.287 27.3848C136.422 27.3398 136.527 27.3473 136.602 27.4072C136.692 27.4671 136.737 27.5645 136.737 27.6992C136.751 27.834 136.707 27.9912 136.602 28.1709C136.362 28.5902 136.01 29.0918 135.546 29.6758C135.082 30.2448 134.588 30.7988 134.064 31.3379C133.54 31.862 133.023 32.3112 132.514 32.6855C132.02 33.0599 131.615 33.2546 131.301 33.2695C131.046 33.2845 130.792 33.2396 130.537 33.1348C130.298 33.0449 130.073 32.9176 129.863 32.7529C129.669 32.5732 129.504 32.3711 129.369 32.1465C129.235 31.9069 129.16 31.6598 129.145 31.4053C129.1 31.0309 129.1 30.5218 129.145 29.8779C129.19 29.2191 129.272 28.5527 129.392 27.8789C129.512 27.1901 129.661 26.5387 129.841 25.9248C130.036 25.3109 130.253 24.8542 130.492 24.5547ZM143.94 27.3174C144 27.2275 144.075 27.1751 144.165 27.1602C144.27 27.1302 144.352 27.1377 144.412 27.1826C144.472 27.2275 144.502 27.3024 144.502 27.4072C144.517 27.512 144.479 27.6543 144.389 27.834C144.09 28.403 143.693 29.0169 143.199 29.6758C142.72 30.3346 142.211 30.9561 141.672 31.54C141.133 32.109 140.608 32.5807 140.099 32.9551C139.59 33.3294 139.163 33.5166 138.819 33.5166C138.325 33.5166 137.913 33.4193 137.584 33.2246C137.254 33.0299 136.992 32.7904 136.798 32.5059C136.618 32.2214 136.491 31.9144 136.416 31.585C136.341 31.2406 136.318 30.9261 136.348 30.6416C136.363 30.402 136.416 29.9753 136.506 29.3613C136.595 28.7324 136.715 28.0137 136.865 27.2051C137.015 26.3815 137.179 25.5055 137.359 24.5771C137.554 23.6338 137.756 22.7279 137.966 21.8594C137.711 21.8893 137.456 21.9193 137.202 21.9492C136.947 21.9792 136.715 21.9941 136.506 21.9941C136.026 21.9941 135.577 21.9417 135.158 21.8369C134.724 21.7171 134.402 21.6048 134.192 21.5C134.072 21.4401 134.02 21.3577 134.035 21.2529C134.05 21.1331 134.095 21.0208 134.17 20.916C134.245 20.7962 134.342 20.6989 134.462 20.624C134.566 20.5342 134.664 20.4893 134.754 20.4893C135.038 20.5192 135.345 20.5492 135.675 20.5791C136.004 20.5941 136.363 20.5941 136.753 20.5791C137.037 20.5641 137.307 20.5417 137.561 20.5117C137.831 20.4818 138.093 20.4443 138.347 20.3994C138.542 19.6807 138.729 19.0592 138.909 18.5352C139.104 17.9961 139.276 17.6217 139.426 17.4121C139.47 17.3372 139.568 17.2773 139.718 17.2324C139.882 17.1725 140.054 17.1351 140.234 17.1201C140.414 17.0902 140.586 17.0902 140.751 17.1201C140.915 17.1351 141.035 17.1875 141.11 17.2773C141.185 17.3971 141.215 17.7041 141.2 18.1982C141.185 18.6924 141.103 19.3213 140.953 20.085C141.582 20.085 142.136 20.1224 142.615 20.1973C143.109 20.2572 143.528 20.332 143.873 20.4219C144.217 20.4967 144.494 20.5791 144.704 20.6689C144.913 20.7438 145.071 20.7962 145.176 20.8262C145.28 20.8561 145.333 20.931 145.333 21.0508C145.348 21.1706 145.325 21.2979 145.265 21.4326C145.22 21.5524 145.138 21.6572 145.018 21.7471C144.899 21.8369 144.764 21.8669 144.614 21.8369C144.464 21.8219 144.292 21.792 144.097 21.7471C143.918 21.7021 143.693 21.6647 143.424 21.6348C143.169 21.6048 142.862 21.5749 142.503 21.5449C142.143 21.515 141.724 21.5 141.245 21.5C141.155 21.5 141.05 21.5075 140.93 21.5225C140.826 21.5225 140.713 21.5225 140.593 21.5225C140.534 21.762 140.474 22.0016 140.414 22.2412C140.369 22.4658 140.302 22.7054 140.212 22.96C140.017 23.5589 139.792 24.2103 139.538 24.9141C139.313 25.528 139.044 26.2318 138.729 27.0254C138.415 27.819 138.063 28.665 137.674 29.5635C137.584 30.2074 137.591 30.7015 137.696 31.0459C137.816 31.3753 137.958 31.6149 138.123 31.7646C138.317 31.9294 138.557 32.0192 138.842 32.0342C139.066 32.0641 139.336 31.9893 139.65 31.8096C139.98 31.6149 140.316 31.3604 140.661 31.0459C141.005 30.7314 141.35 30.387 141.694 30.0127C142.053 29.6383 142.383 29.2715 142.682 28.9121C142.982 28.5527 143.244 28.2308 143.468 27.9463C143.693 27.6468 143.85 27.4372 143.94 27.3174ZM149.19 24.7344C149.384 24.5846 149.572 24.4723 149.751 24.3975C149.946 24.3076 150.118 24.2477 150.268 24.2178C150.433 24.1729 150.597 24.1579 150.762 24.1729C151.166 24.2028 151.413 24.3301 151.503 24.5547C151.608 24.7793 151.623 25.1387 151.548 25.6328C151.503 25.8874 151.413 26.2093 151.279 26.5986C151.144 26.988 150.987 27.4671 150.807 28.0361C150.627 28.5902 150.433 29.2266 150.223 29.9453C150.028 30.6641 149.841 31.4727 149.661 32.3711C149.482 33.1048 149.287 33.9508 149.077 34.9092C148.898 35.7477 148.681 36.7585 148.426 37.9414C148.186 39.1243 147.924 40.4795 147.64 42.0068C147.565 42.3812 147.4 42.5983 147.146 42.6582C146.906 42.7181 146.652 42.6882 146.382 42.5684C146.277 42.5085 146.18 42.4411 146.09 42.3662C146.015 42.2913 145.933 42.2015 145.843 42.0967C145.753 42.0068 145.678 41.8796 145.618 41.7148C145.963 40.457 146.262 39.3115 146.517 38.2783C146.786 37.2451 147.026 36.3467 147.236 35.583C147.46 34.6995 147.67 33.9059 147.865 33.2021C147.939 32.8877 148.007 32.5807 148.067 32.2812C148.142 31.9668 148.216 31.6598 148.291 31.3604C148.097 31.6748 147.887 31.9743 147.662 32.2588C147.438 32.5433 147.191 32.7904 146.921 33C146.652 33.2096 146.36 33.3669 146.045 33.4717C145.746 33.5915 145.431 33.6289 145.102 33.584C144.293 33.4792 143.717 33.1797 143.372 32.6855C143.043 32.1914 142.901 31.5475 142.946 30.7539C142.961 30.4395 143.006 30.0951 143.08 29.7207C143.155 29.3464 143.238 28.987 143.327 28.6426C143.417 28.2982 143.5 27.9912 143.575 27.7217C143.664 27.4372 143.732 27.235 143.777 27.1152C143.956 26.5462 144.084 26.0596 144.159 25.6553C144.248 25.251 144.188 24.9141 143.979 24.6445C144.188 24.5098 144.383 24.4199 144.563 24.375C144.757 24.3151 144.93 24.2702 145.079 24.2402C145.244 24.2253 145.409 24.2253 145.574 24.2402C145.978 24.3001 146.21 24.4499 146.27 24.6895C146.345 24.929 146.322 25.2884 146.202 25.7676C146.143 26.0221 146.045 26.3516 145.91 26.7559C145.776 27.1452 145.633 27.5495 145.484 27.9688C145.334 28.388 145.199 28.7773 145.079 29.1367C144.96 29.4811 144.892 29.7282 144.877 29.8779C144.742 30.5518 144.735 31.0758 144.855 31.4502C144.975 31.8096 145.237 31.9893 145.641 31.9893C145.836 31.9893 146.053 31.9069 146.292 31.7422C146.532 31.5625 146.771 31.3304 147.011 31.0459C147.266 30.7614 147.513 30.4395 147.752 30.0801C147.992 29.7057 148.209 29.3314 148.404 28.957C148.613 28.5827 148.793 28.2158 148.943 27.8564C149.107 27.4971 149.227 27.1751 149.302 26.8906C149.407 26.3366 149.474 25.9023 149.504 25.5879C149.534 25.2734 149.429 24.9889 149.19 24.7344Z" fill="white"/>
</g>
<defs>
<clipPath id="clip0_1_3706">
<rect width="197.6" height="55" fill="white" transform="translate(0.199951)"/>
</clipPath>
<clipPath id="clip1_1_3706">
<rect width="197.59" height="55.884" fill="white" transform="translate(0.199951 -0.441895)"/>
</clipPath>
</defs>
</svg>
