<svg width="37" height="26" viewBox="0 0 37 26" fill="none" xmlns="http://www.w3.org/2000/svg">
<g clip-path="url(#clip0_17_1267)">
<g clip-path="url(#clip1_17_1267)">
<g clip-path="url(#clip2_17_1267)">
<path d="M36.144 0.609863H0.429688V25.6099H36.144V0.609863Z" fill="#253B80"/>
<path fill-rule="evenodd" clip-rule="evenodd" d="M9.74591 10.0483H7.99647C7.87676 10.0483 7.77494 10.1372 7.75627 10.2578L7.04871 14.8373C7.03465 14.9277 7.1032 15.0092 7.19299 15.0092H8.02819C8.14791 15.0092 8.24972 14.9204 8.26839 14.7995L8.45923 13.5644C8.47764 13.4434 8.5797 13.3547 8.69917 13.3547H9.25298C10.4054 13.3547 11.0705 12.7854 11.2442 11.6573C11.3225 11.1638 11.2475 10.776 11.0211 10.5043C10.7725 10.2062 10.3314 10.0483 9.74591 10.0483ZM9.94775 11.721C9.8521 12.3618 9.37245 12.3618 8.90868 12.3618H8.64468L8.82989 11.165C8.84088 11.0927 8.90227 11.0394 8.9739 11.0394H9.0949C9.41082 11.0394 9.70886 11.0394 9.86287 11.2232C9.95461 11.333 9.98279 11.4959 9.94775 11.721ZM14.9754 11.7004H14.1376C14.0663 11.7004 14.0046 11.7537 13.9936 11.8261L13.9565 12.0653L13.8979 11.9786C13.7166 11.7099 13.3122 11.6201 12.9085 11.6201C11.9827 11.6201 11.192 12.3359 11.038 13.34C10.958 13.8407 11.0718 14.3196 11.3501 14.6537C11.6054 14.9607 11.9707 15.0887 12.4053 15.0887C13.1512 15.0887 13.5649 14.599 13.5649 14.599L13.5275 14.8367C13.5134 14.9276 13.582 15.0091 13.6712 15.0091H14.4259C14.5459 15.0091 14.6471 14.9202 14.6661 14.7994L15.1189 11.8723C15.1332 11.7823 15.0649 11.7004 14.9754 11.7004ZM13.8076 13.365C13.7268 13.8535 13.3469 14.1815 12.8625 14.1815C12.6192 14.1815 12.4247 14.1019 12.2999 13.9509C12.1761 13.8011 12.129 13.5877 12.1684 13.3501C12.2439 12.8656 12.6302 12.527 13.1073 12.527C13.3451 12.527 13.5385 12.6076 13.6659 12.7599C13.7935 12.9137 13.8442 13.1284 13.8076 13.365ZM18.5953 11.7003H19.4372C19.5551 11.7003 19.6239 11.8353 19.5569 11.934L16.7569 16.0599C16.7116 16.1268 16.6369 16.1665 16.5571 16.1665H15.7162C15.5978 16.1665 15.5287 16.0304 15.5973 15.9315L16.4691 14.6752L15.5419 11.8972C15.5098 11.8006 15.5796 11.7003 15.6802 11.7003H16.5075C16.615 11.7003 16.7098 11.7724 16.7408 11.8774L17.2329 13.5552L18.3941 11.8092C18.4395 11.7411 18.5151 11.7003 18.5953 11.7003Z" fill="white"/>
<path fill-rule="evenodd" clip-rule="evenodd" d="M27.727 14.8376L28.4449 10.1743C28.456 10.1019 28.5174 10.0486 28.5888 10.0483H29.3971C29.4863 10.0483 29.5549 10.13 29.5408 10.2204L28.8327 14.7998C28.8143 14.9206 28.7125 15.0094 28.5926 15.0094H27.8707C27.7814 15.0094 27.7129 14.928 27.727 14.8376ZM22.2284 10.0486H20.4786C20.3592 10.0486 20.2574 10.1374 20.2387 10.258L19.5311 14.8376C19.5171 14.928 19.5856 15.0094 19.675 15.0094H20.5728C20.6562 15.0094 20.7276 14.9473 20.7406 14.8627L20.9414 13.5646C20.9599 13.4436 21.0619 13.3549 21.1813 13.3549H21.7349C22.8875 13.3549 23.5525 12.7856 23.7264 11.6575C23.8048 11.164 23.7294 10.7762 23.5031 10.5045C23.2546 10.2064 22.8139 10.0486 22.2284 10.0486ZM22.4302 11.7212C22.3348 12.3621 21.8551 12.3621 21.3911 12.3621H21.1274L21.3129 11.1652C21.3239 11.093 21.3847 11.0397 21.4566 11.0397H21.5776C21.8933 11.0397 22.1916 11.0397 22.3455 11.2235C22.4373 11.3332 22.4653 11.4961 22.4302 11.7212ZM27.4574 11.7007H26.6203C26.5483 11.7007 26.4872 11.754 26.4764 11.8264L26.4394 12.0655L26.3805 11.9789C26.1992 11.7101 25.795 11.6203 25.3914 11.6203C24.4655 11.6203 23.6751 12.3361 23.5211 13.3402C23.4413 13.841 23.5546 14.3199 23.8329 14.6539C24.0887 14.961 24.4536 15.0889 24.8881 15.0889C25.634 15.0889 26.0477 14.5993 26.0477 14.5993L26.0104 14.837C25.9963 14.9279 26.0648 15.0093 26.1547 15.0093H26.909C27.0284 15.0093 27.1302 14.9205 27.1489 14.7996L27.602 11.8725C27.6158 11.7825 27.5473 11.7007 27.4574 11.7007ZM26.2897 13.3652C26.2094 13.8538 25.829 14.1818 25.3445 14.1818C25.1017 14.1818 24.9068 14.1021 24.7819 13.9512C24.6581 13.8013 24.6116 13.5879 24.6505 13.3503C24.7264 12.8659 25.1122 12.5273 25.5893 12.5273C25.8272 12.5273 26.0205 12.6079 26.148 12.7601C26.2761 12.914 26.3268 13.1286 26.2897 13.3652Z" fill="#179BD7"/>
</g>
</g>
</g>
<defs>
<clipPath id="clip0_17_1267">
<rect y="0.609863" width="37" height="25" rx="4" fill="white"/>
</clipPath>
<clipPath id="clip1_17_1267">
<rect width="37" height="25" fill="white" transform="translate(0 0.609863)"/>
</clipPath>
<clipPath id="clip2_17_1267">
<rect width="37" height="25" fill="white" transform="translate(0 0.609863)"/>
</clipPath>
</defs>
</svg>
