<svg width="37" height="26" viewBox="0 0 37 26" fill="none" xmlns="http://www.w3.org/2000/svg">
<g clip-path="url(#clip0_17_1280)">
<g clip-path="url(#clip1_17_1280)">
<path d="M36.5737 0.609863H0.859375V25.6099H36.5737V0.609863Z" fill="#862165"/>
<path fill-rule="evenodd" clip-rule="evenodd" d="M24.2867 8.76611C23.7092 8.76611 23.2402 9.24236 23.2402 9.82948C23.2402 10.4169 23.7092 10.8922 24.2867 10.8922C24.8651 10.8922 25.3338 10.4169 25.3338 9.82948C25.3338 9.24236 24.8651 8.76611 24.2867 8.76611ZM9.1916 12.3293C8.92327 12.3116 8.30161 12.2705 8.30161 11.7024C8.30161 11.0169 9.19602 11.0169 9.53167 11.0169C10.122 11.0169 10.8859 11.1937 11.432 11.3598C11.432 11.3598 11.7361 11.469 11.9949 11.5802L12.019 11.5871V9.70931L11.9867 9.69929C11.3419 9.47032 10.5934 9.25032 9.20486 9.25032C6.81105 9.25032 5.96289 10.666 5.96289 11.8799C5.96289 12.579 6.25808 14.2256 8.99877 14.4152L9.00131 14.4154C9.23617 14.43 9.84863 14.4681 9.84863 15.0531C9.84863 15.538 9.34361 15.8233 8.49443 15.8233C7.56398 15.8233 6.66073 15.5829 6.11253 15.3539V17.2873C6.93347 17.5066 7.85917 17.615 8.94402 17.615C11.2838 17.615 12.3326 16.2753 12.3326 14.9471C12.3326 13.4417 11.1596 12.4633 9.1916 12.3293ZM29.3495 17.5262V9.63609L31.4733 9.25032V17.5262H29.3495ZM22.0251 11.3834C20.0632 11.4476 19.0664 12.3421 19.0664 14.12V17.5253H21.2075V14.7479C21.2075 13.6838 21.3449 13.2276 22.5886 13.1841V11.4148C22.3794 11.3696 22.0251 11.3834 22.0251 11.3834ZM23.2285 17.5263V11.4732H25.352V17.5263H23.2285ZM26.2461 9.63625L28.3685 9.25048V17.5264H26.2461V9.63625ZM16.2533 11.4949L16.2641 11.4664H18.7704C18.699 11.6981 18.2518 13.0965 17.2323 14.4095C17.2323 14.4095 18.3678 16.4302 18.6273 17.5264H16.0029C16.0029 17.5264 15.6893 16.0711 15.0547 15.104V17.5264H12.8633V9.69082L15.0547 9.25048V13.5738C15.8313 12.62 16.1773 11.6975 16.2533 11.4949Z" fill="white"/>
</g>
</g>
<defs>
<clipPath id="clip0_17_1280">
<rect width="37" height="25" fill="white" transform="translate(0 0.609863)"/>
</clipPath>
<clipPath id="clip1_17_1280">
<rect width="37" height="25" fill="white" transform="translate(0 0.609863)"/>
</clipPath>
</defs>
</svg>
