<svg width="37" height="26" viewBox="0 0 37 26" fill="none" xmlns="http://www.w3.org/2000/svg">
<g clip-path="url(#clip0_17_1714)">
<g clip-path="url(#clip1_17_1714)">
<path d="M36.4291 0.610046H0.714844V25.61H36.4291V0.610046Z" fill="#6461FC"/>
<path fill-rule="evenodd" clip-rule="evenodd" d="M19.9021 9.09054L18.0879 9.488V7.98647L19.9021 7.59637V9.09054ZM12.5326 8.45086L10.7689 8.8336L10.7617 14.7293C10.7617 15.8186 11.564 16.6209 12.6338 16.6209C13.2264 16.6209 13.6601 16.5105 13.8986 16.378V14.8839C13.6673 14.9795 12.5253 15.3181 12.5253 14.2288V11.6158H13.8986V10.0481H12.5253L12.5326 8.45086ZM8.2614 11.5187C7.87832 11.5187 7.64702 11.6291 7.64702 11.9162C7.64702 12.2296 8.04508 12.3675 8.53892 12.5385C9.34399 12.8174 10.4036 13.1844 10.4081 14.5439C10.4081 15.8614 9.3745 16.6195 7.87109 16.6195C7.24949 16.6195 6.57006 16.4944 5.89787 16.2V14.4482C6.50501 14.7868 7.27117 15.037 7.87109 15.037C8.27585 15.037 8.56497 14.9266 8.56497 14.5881C8.56497 14.2409 8.13347 14.0822 7.61252 13.8906C6.81916 13.5989 5.81836 13.2308 5.81836 12.0045C5.81836 10.7017 6.79413 9.92156 8.2614 9.92156C8.86132 9.92156 9.45401 10.0173 10.0539 10.2601V11.9898C9.5046 11.688 8.81072 11.5187 8.2614 11.5187ZM16.1437 10.5912L16.028 10.0465H14.4668V16.4868H16.2738V12.1221C16.7002 11.5553 17.423 11.6584 17.6471 11.7393V10.0465C17.4158 9.95815 16.5701 9.79622 16.1437 10.5912ZM18.0879 10.0466H19.9021V16.4869H18.0879V10.0466ZM31.841 13.2946C31.841 11.4103 30.9448 9.92352 29.2318 9.92352C27.5115 9.92352 26.4707 11.4103 26.4707 13.2798C26.4707 15.4953 27.6994 16.6141 29.4631 16.6141C30.3232 16.6141 30.9737 16.4154 31.4652 16.1357V14.6636C30.9737 14.9139 30.4099 15.0684 29.6943 15.0684C28.9932 15.0684 28.3716 14.8182 28.2921 13.9496H31.8266C31.8266 13.9093 31.8291 13.8179 31.8321 13.7125L31.8322 13.7109C31.8362 13.5667 31.841 13.3963 31.841 13.2946ZM28.2715 12.5953C28.2715 11.7636 28.7702 11.4176 29.2256 11.4176C29.6665 11.4176 30.1363 11.7636 30.1363 12.5953H28.2715ZM22.2603 10.4975C22.5133 10.2619 22.9686 9.92335 23.6769 9.92335C24.9418 9.92335 26.1344 11.0863 26.1417 13.2208C26.1417 15.5541 24.9635 16.614 23.6697 16.614C23.0337 16.614 22.6506 16.3416 22.3904 16.1503L22.3831 18.2333L20.5762 18.6234V10.0411H22.1663L22.2603 10.4975ZM22.39 14.6494C22.5635 14.8408 22.8165 14.9954 23.2429 14.9954C23.9079 14.9954 24.356 14.2593 24.356 13.273C24.356 12.3088 23.9007 11.558 23.2429 11.558C22.8309 11.558 22.5707 11.7052 22.3828 11.9187L22.39 14.6494Z" fill="white"/>
</g>
</g>
<defs>
<clipPath id="clip0_17_1714">
<rect width="37" height="25" fill="white" transform="translate(0 0.610046)"/>
</clipPath>
<clipPath id="clip1_17_1714">
<rect width="37" height="25" fill="white" transform="translate(0 0.610046)"/>
</clipPath>
</defs>
</svg>
