<svg width="36" height="26" viewBox="0 0 36 26" fill="none" xmlns="http://www.w3.org/2000/svg">
<g clip-path="url(#clip0_17_1253)">
<g clip-path="url(#clip1_17_1253)">
<g clip-path="url(#clip2_17_1253)">
<path d="M35.7143 0.609863H0V25.6099H35.7143V0.609863Z" fill="#00579F"/>
<path d="M15.283 17.3646H13.2637L14.5267 9.39209H16.546L15.283 17.3646Z" fill="white"/>
<path d="M22.6025 9.586C22.2042 9.42469 21.5724 9.24658 20.7913 9.24658C18.7971 9.24658 17.3928 10.3321 17.3842 11.8842C17.3676 13.0293 18.3896 13.6653 19.154 14.0471C19.9352 14.4372 20.2008 14.6919 20.2008 15.0397C20.1929 15.5738 19.5695 15.82 18.9881 15.82C18.1819 15.82 17.7499 15.693 17.0934 15.3959L16.8275 15.2685L16.5449 17.0581C17.0185 17.2784 17.8911 17.4739 18.7971 17.4825C20.9159 17.4825 22.2954 16.4137 22.3117 14.7598C22.3198 13.8522 21.7801 13.1568 20.6167 12.5885C19.9104 12.2237 19.4778 11.9778 19.4778 11.6045C19.4861 11.2652 19.8437 10.9177 20.641 10.9177C21.2975 10.9007 21.7798 11.0617 22.1452 11.2229L22.3278 11.3076L22.6025 9.586Z" fill="white"/>
<path d="M25.2844 14.5403C25.4508 14.0822 26.0907 12.3096 26.0907 12.3096C26.0823 12.3266 26.2566 11.8431 26.3564 11.5463L26.4975 12.2333C26.4975 12.2333 26.8799 14.1417 26.9629 14.5403C26.6473 14.5403 25.6833 14.5403 25.2844 14.5403ZM27.7771 9.39209H26.2151C25.7334 9.39209 25.3675 9.53615 25.1597 10.0536L22.1602 17.3645H24.279C24.279 17.3645 24.6279 16.3805 24.7028 16.1686C24.9353 16.1686 26.9965 16.1686 27.2955 16.1686C27.3535 16.4485 27.5365 17.3645 27.5365 17.3645H29.4062L27.7771 9.39209Z" fill="white"/>
<path d="M11.5735 9.39209L9.59591 14.8286L9.3798 13.726C9.01418 12.4538 7.86751 11.0715 6.58789 10.3842L8.39932 17.3562H10.5347L13.7088 9.39209H11.5735Z" fill="white"/>
<path d="M7.76267 9.39209H4.51371L4.48047 9.55317C7.01486 10.2148 8.69335 11.8096 9.38296 13.7264L8.67667 10.0622C8.56039 9.55306 8.20305 9.40888 7.76267 9.39209Z" fill="#FAA61A"/>
</g>
</g>
</g>
<defs>
<clipPath id="clip0_17_1253">
<rect y="0.609863" width="36" height="25" rx="4" fill="white"/>
</clipPath>
<clipPath id="clip1_17_1253">
<rect width="36" height="25" fill="white" transform="translate(0 0.609863)"/>
</clipPath>
<clipPath id="clip2_17_1253">
<rect width="36" height="25" fill="white" transform="translate(0 0.609863)"/>
</clipPath>
</defs>
</svg>
