<svg width="36" height="26" viewBox="0 0 36 26" fill="none" xmlns="http://www.w3.org/2000/svg">
<g clip-path="url(#clip0_17_1274)">
<g clip-path="url(#clip1_17_1274)">
<path d="M35.8588 0.609863H0.144531V25.6099H35.8588V0.609863Z" fill="#7F54B3"/>
<path d="M9.60347 6.84619H26.3913C27.4537 6.84619 28.3138 7.72412 28.3138 8.80873V15.3505C28.3138 16.435 27.4538 17.313 26.3913 17.313H20.371L21.1974 19.3788L17.5632 17.313H9.61201C8.54962 17.313 7.68951 16.4351 7.68951 15.3505V8.80873C7.68108 7.73276 8.54107 6.84619 9.60347 6.84619Z" fill="white"/>
<path d="M8.86299 8.6369C8.98036 8.47429 9.15643 8.3887 9.39117 8.37159C9.81875 8.33735 10.0619 8.54276 10.1206 8.9878C10.3805 10.7766 10.6655 12.2914 10.9674 13.5325L12.8034 9.96352C12.9711 9.63829 13.1807 9.46712 13.4322 9.45001C13.8011 9.42433 14.0275 9.66397 14.1197 10.1689C14.3293 11.3073 14.5976 12.2744 14.9162 13.096C15.1341 10.9221 15.503 9.35588 16.0229 8.38872C16.1486 8.14908 16.3331 8.02926 16.5762 8.01214C16.769 7.99502 16.9451 8.05493 17.1044 8.18331C17.2637 8.31169 17.3475 8.4743 17.3643 8.67114C17.3727 8.8252 17.3475 8.95357 17.2804 9.08195C16.9535 9.69817 16.6852 10.7338 16.4672 12.1716C16.2576 13.5667 16.1822 14.6536 16.2325 15.4324C16.2492 15.6464 16.2157 15.8346 16.1319 15.9973C16.0313 16.1855 15.8803 16.2882 15.6875 16.3054C15.4695 16.3225 15.2432 16.2198 15.0252 15.9887C14.2455 15.1756 13.6251 13.9604 13.1724 12.3427C12.6275 13.4382 12.2251 14.2599 11.9652 14.8076C11.4705 15.7747 11.0513 16.2711 10.6992 16.2968C10.4728 16.3139 10.28 16.117 10.1123 15.7062C9.68473 14.585 9.22361 12.4198 8.72895 9.21031C8.69541 8.98778 8.74562 8.79096 8.86299 8.6369ZM26.8802 9.98057C26.5784 9.44138 26.1341 9.11612 25.5389 8.98774C25.3796 8.95351 25.2287 8.93639 25.0861 8.93639C24.2813 8.93639 23.6274 9.36432 23.1159 10.2202C22.68 10.9477 22.462 11.7522 22.462 12.6337C22.462 13.2927 22.5961 13.8575 22.8644 14.3283C23.1662 14.8675 23.6106 15.1927 24.2058 15.3211C24.3651 15.3554 24.516 15.3725 24.6585 15.3725C25.4717 15.3725 26.1257 14.9446 26.6287 14.0887C27.0647 13.3526 27.2827 12.5481 27.2827 11.6667C27.291 10.9991 27.1485 10.4428 26.8802 9.98057ZM25.8239 12.3513C25.7065 12.9162 25.4969 13.3355 25.1867 13.618C24.9436 13.8405 24.7172 13.9347 24.5076 13.8919C24.3064 13.8491 24.1387 13.6694 24.013 13.3356C23.9124 13.0703 23.8621 12.805 23.8621 12.5568C23.8621 12.3428 23.8788 12.1288 23.9208 11.932C23.9962 11.5811 24.1387 11.2387 24.3651 10.9135C24.6418 10.4941 24.9352 10.3229 25.237 10.3828C25.4383 10.4256 25.6059 10.6054 25.7317 10.9392C25.8323 11.2045 25.8826 11.4698 25.8826 11.718C25.8826 11.9405 25.8658 12.1545 25.8239 12.3513ZM21.6319 9.98057C21.3301 9.44138 20.8774 9.11612 20.2905 8.98774C20.1312 8.95351 19.9803 8.93639 19.8378 8.93639C19.033 8.93639 18.379 9.36432 17.8676 10.2202C17.4317 10.9477 17.2137 11.7522 17.2137 12.6337C17.2137 13.2927 17.3478 13.8575 17.6161 14.3283C17.9179 14.8675 18.3623 15.1927 18.9575 15.3211C19.1168 15.3554 19.2677 15.3725 19.4102 15.3725C20.2234 15.3725 20.8774 14.9446 21.3804 14.0887C21.8164 13.3526 22.0343 12.5481 22.0343 11.6667C22.0343 10.9991 21.9002 10.4428 21.6319 9.98057ZM20.5672 12.3513C20.4498 12.9162 20.2402 13.3355 19.93 13.618C19.6869 13.8405 19.4605 13.9347 19.2509 13.8919C19.0497 13.8491 18.882 13.6694 18.7563 13.3356C18.6557 13.0703 18.6054 12.805 18.6054 12.5568C18.6054 12.3428 18.6221 12.1288 18.6641 11.932C18.7395 11.5811 18.882 11.2387 19.1084 10.9135C19.3851 10.4941 19.6785 10.3229 19.9803 10.3828C20.1816 10.4256 20.3492 10.6054 20.475 10.9392C20.5756 11.2045 20.6259 11.4698 20.6259 11.718C20.6343 11.9405 20.6091 12.1545 20.5672 12.3513Z" fill="#7F54B3"/>
</g>
</g>
<defs>
<clipPath id="clip0_17_1274">
<rect width="36" height="25" fill="white" transform="translate(0 0.609863)"/>
</clipPath>
<clipPath id="clip1_17_1274">
<rect width="36" height="25" fill="white" transform="translate(0 0.609863)"/>
</clipPath>
</defs>
</svg>
